<svg width="72" height="72" viewBox="0 0 72 72" fill="none" xmlns="http://www.w3.org/2000/svg">
<g clip-path="url(#clip0)">
<rect width="72" height="72" fill="#FFBD12"/>
<path fill-rule="evenodd" clip-rule="evenodd" d="M64.7137 104.39C64.4966 102.373 64.3628 100.342 64.2861 98.3152C64.2094 96.2906 64.3097 94.2411 64.3537 92.2157C64.4435 88.0955 64.5893 83.9655 64.2614 79.8516C63.9515 75.9636 63.2401 72.1027 62.1174 68.367C61.5707 66.5476 60.9945 64.655 60.0954 62.974C59.1912 61.2838 57.759 60.1583 56.1858 59.1261C54.5109 58.0271 52.8493 56.9074 51.1809 55.7983C49.7804 54.8672 47.2601 53.7836 46.111 52.539C44.9019 51.2293 44.6746 47.9829 43.8694 46.4315C43.0852 44.9203 40.8655 43.9345 39.1563 43.9345C36.3272 43.9345 34.1837 43.7899 31.8574 46.4079C30.6968 47.7142 31.6203 49.0347 30.4037 50.2884C29.2852 51.4411 26.4249 52.6257 24.9833 53.2945C23.2567 54.0956 21.4866 54.8028 19.6907 55.4328C17.8589 56.0755 15.9808 56.5545 14.1386 57.161C12.3729 57.7424 10.0672 60.1388 8.69638 61.4067C7.42194 62.5856 7.10566 62.4536 6.13679 63.8857C4.01044 67.0286 1.88175 70.2075 0.188471 73.6104C-0.654949 75.3054 -1.47162 77.0884 -1.77763 78.9709C-2.10405 80.9786 -1.7804 82.9189 -1.25105 84.8629C-0.712215 86.8412 0.998872 88.7248 1.55632 90.6981C1.81321 91.6074 0.931407 92.5998 1.33701 93.4568C1.53959 93.8848 1.79469 94.2659 2.08514 94.6388C2.30892 94.9261 3.18163 94.8624 3.29455 95.2141C3.40864 95.5693 2.77725 96.3064 2.76785 96.674C2.75452 97.2001 2.73358 97.7262 2.71631 98.2522L2.61431 101.362C2.54729 103.406 2.48027 105.45 2.41325 107.494C2.39133 108.161 2.35939 108.813 2.51928 109.446C2.46157 109.392 2.40672 109.334 2.35661 109.269C2.20996 109.077 1.89893 109.239 2.0234 109.463C2.23116 109.837 2.52993 110.1 2.88095 110.289C3.28889 110.891 65.0667 112.235 65.3706 110.476C65.5412 109.489 65.2308 108.433 65.1067 107.452C64.9775 106.431 64.8239 105.414 64.7137 104.39Z" fill="white"/>
<path fill-rule="evenodd" clip-rule="evenodd" d="M1.95921 78.9744C2.11034 78.5414 2.80164 78.7288 2.64944 79.1647C1.86704 81.4067 2.42208 83.8464 3.26791 85.9865C3.43765 86.4159 2.74509 86.6004 2.57768 86.1768C1.68791 83.9256 1.13744 81.3289 1.95921 78.9744ZM7.20532 91.7803C9.41185 92.0909 11.6202 92.2824 13.8419 92.4373C13.9412 92.4444 14.0271 92.4293 14.1014 92.397C14.0352 93.4148 13.9815 94.4334 13.9394 95.4521C13.3337 95.4352 12.7154 95.4754 12.115 95.4592C11.3303 95.4378 10.5464 95.3984 9.7635 95.3385C8.24774 95.2238 6.73467 95.0412 5.23591 94.7888C4.67578 94.6948 3.96443 94.6375 3.32645 94.4513C2.72337 94.2751 2.1865 93.9832 1.90464 93.4336C1.66484 92.9681 1.621 92.398 1.621 91.8833C1.621 91.5287 1.68184 91.1689 1.71853 90.8117C1.76416 90.7796 1.80532 90.741 1.83843 90.6981C2.50414 90.9084 3.19492 91.0562 3.87137 91.1993C4.97284 91.4338 6.09043 91.6237 7.20532 91.7803ZM5.96077 83.5037C5.97294 84.1878 6.16218 84.8093 6.53039 85.3853C6.77949 85.7751 6.15968 86.1338 5.91227 85.7468C5.47884 85.0685 5.25926 84.3072 5.24494 83.5037C5.23671 83.0419 5.95254 83.0434 5.96077 83.5037ZM62.5223 90.9675C62.8211 90.9842 63.1217 90.9944 63.4214 91.0103C63.6857 91.2365 64.0517 91.3524 64.3859 91.2804C64.3974 91.3093 64.4079 91.3418 64.4174 91.3792C64.4765 91.6093 64.506 91.8563 64.54 92.0909C64.574 92.3218 64.6 92.5546 64.6179 92.7874C64.6268 92.9045 64.6832 93.1695 64.6116 93.2716C64.5472 93.3637 64.4049 93.3557 64.3065 93.3673C64.0416 93.396 63.7732 93.4095 63.5066 93.4319C63.0028 93.4756 62.499 93.5195 61.9962 93.5633C61.5031 93.6064 60.9618 93.593 60.4795 93.7228C60.3972 92.755 60.322 91.7875 60.2522 90.8189C60.9994 90.9291 61.7805 90.9263 62.5223 90.9675ZM-0.12306 89.3625C0.177587 89.9434 0.454969 90.5145 1.03031 90.8636C1.10547 90.9083 1.18958 90.9325 1.27548 90.9388C1.21106 91.2154 1.17079 91.4982 1.135 91.7596C1.05626 92.3353 1.03926 92.9304 1.18332 93.498C1.3238 94.0503 1.55644 94.5436 2.01278 94.8971C2.22484 95.0618 2.45659 95.1871 2.69997 95.2864C2.65881 95.4019 2.63465 95.5166 2.64718 95.6428C2.58902 95.9354 2.55054 96.2336 2.50849 96.519C2.41633 97.1528 2.32416 97.7874 2.25169 98.4248C2.10673 99.6923 1.9931 100.96 1.89735 102.232C1.80161 103.5 1.73272 104.77 1.67545 106.042C1.64592 106.691 1.61997 107.341 1.59581 107.992C1.57165 108.661 1.46339 109.344 1.75866 109.965C1.99668 110.466 2.80108 110.437 3.04804 109.965C3.36122 109.364 3.26905 108.651 3.27711 107.992C3.28516 107.372 3.2959 106.75 3.30932 106.13C3.33616 104.86 3.37553 103.591 3.40685 102.32C3.43727 101.081 3.47485 99.8417 3.49991 98.602C3.51243 97.953 3.51333 97.304 3.51691 96.6551C3.5187 96.2952 3.53391 95.9113 3.50706 95.5362C3.73076 95.589 3.95624 95.6337 4.17905 95.6794C5.88002 96.0285 7.5989 96.2827 9.32851 96.4403C10.1973 96.519 11.0689 96.5745 11.9404 96.6059C12.581 96.6291 13.245 96.6739 13.8955 96.6498C13.8445 98.2037 13.8212 99.7585 13.8239 101.313C13.8257 102.435 13.8409 103.557 13.8686 104.678C13.8838 105.268 13.8964 105.858 13.9143 106.448C13.9223 106.713 13.9223 106.98 13.9402 107.244C13.9456 107.327 13.9572 107.407 13.9724 107.485C13.9134 107.653 13.8641 107.818 13.8239 107.973C13.627 108.725 13.627 109.447 13.7147 110.214C13.7899 110.863 14.3366 111.466 15.0587 111.238C15.1759 111.201 15.2931 111.162 15.4094 111.123C16.4724 111.244 17.5417 111.272 18.6199 111.292C20.1956 111.323 21.7722 111.333 23.3488 111.341C26.4412 111.357 29.5344 111.365 32.6277 111.374C38.8437 111.392 45.0598 111.409 51.2758 111.427C53.001 111.432 54.7261 111.436 56.4512 111.442C57.3442 111.444 58.2354 111.445 59.1275 111.479C59.5436 111.496 59.9606 111.518 60.3766 111.524C60.8589 111.532 61.2857 111.393 61.7465 111.267C62.0069 111.195 62.1098 110.933 62.0543 110.712C62.4713 110.812 62.9769 110.6 63.1191 110.13C63.2229 109.789 63.1844 109.42 63.0296 109.104V109.103C62.7308 107.215 62.3514 105.336 62.0534 103.447C61.7268 101.379 61.4128 99.3057 61.1363 97.2289C60.9287 95.6606 60.7578 96.7723 60.6102 95.1969C61.2535 95.247 61.981 95.0511 62.618 94.9678C63.0753 94.9088 63.5361 94.8612 63.9942 94.7986C63.9602 95.2605 63.9701 95.7313 63.9575 96.1744C63.9334 97.0543 63.9441 97.9306 63.9665 98.8106C64.0094 100.509 64.1052 99.5204 64.2582 101.211C64.413 102.915 64.6027 104.612 64.8326 106.307C64.9507 107.18 65.0769 108.052 65.2102 108.923C65.272 109.329 65.3355 109.735 65.4008 110.141C65.4787 110.62 65.5037 111.074 65.8625 111.434C66.1354 111.707 66.6929 111.683 66.8736 111.303C67.1027 110.822 66.9989 110.411 66.9139 109.906C66.845 109.5 66.7788 109.095 66.7135 108.689C66.5739 107.82 66.4415 106.95 66.3171 106.079C66.0773 104.401 65.8509 102.72 65.6487 101.037C65.4447 99.3405 65.2335 100.331 65.0331 98.6352C64.932 97.7794 64.8308 96.9254 64.7127 96.0724C64.6528 95.6337 64.6152 95.1666 64.5365 94.7144C64.5615 94.7109 64.5866 94.7064 64.6116 94.7019C65.1556 94.6025 65.62 94.2955 65.7569 93.7352C65.8876 93.199 65.7319 92.5822 65.6218 92.056C65.5279 91.6077 65.443 91.0355 65.1545 90.6514C66.171 89.3561 66.8321 87.7262 67.2538 86.1593C67.7132 84.4522 67.9055 82.6703 67.9462 80.9062C67.9934 78.8624 67.8395 76.8305 67.4893 74.8322C67.4811 74.4087 67.4616 73.9854 67.4302 73.5625C67.1224 69.4128 65.8303 64.5012 61.734 62.5623C61.7179 62.5543 61.7009 62.547 61.6839 62.5399C61.3627 62.1559 60.9618 61.8103 60.6379 61.4873C60.0644 60.9143 59.4648 60.3665 58.8296 59.8616C57.5715 58.8619 56.1917 58.0634 54.7574 57.3445C53.307 56.6168 51.8351 55.9339 50.4177 55.1398C49.1829 54.447 48.0716 53.6127 47.0167 52.6711C45.8311 51.6121 44.9873 50.1844 44.6562 48.626C44.6392 48.5446 44.5184 48.567 44.5166 48.6448C44.4298 51.5011 46.3572 54.0254 48.5754 55.6223C51.2275 57.5299 54.4299 58.433 57.1196 60.2824C57.788 60.7416 58.4135 61.2599 59.0085 61.8103C58.0967 61.7172 57.1688 61.7763 56.3143 62.0288C55.9779 62.0082 55.6397 62.002 55.3023 61.9858C54.531 61.9473 53.7588 61.9116 52.9866 61.8775C51.4127 61.8077 49.8379 61.7442 48.2631 61.6887C45.1734 61.5794 42.0828 61.497 38.9923 61.4425C32.7816 61.3323 26.5629 61.3109 20.3531 61.4909C18.6691 61.5392 9.81437 61.2035 8.99475 61.2983C10.2 60.2546 11.5225 59.4025 12.9765 58.7016C14.7956 57.827 16.6755 57.2434 18.6181 56.7099C22.6187 55.6116 26.7731 54.5526 29.9747 51.7625C30.7701 51.0688 31.477 50.2713 32.0559 49.3878C32.6089 48.5446 33.2236 47.465 33.2388 46.4365C33.2496 45.7061 32.2331 45.4402 31.8716 46.0659C31.647 46.4535 31.5361 46.8787 31.3526 47.2851C31.1701 47.6879 30.9536 48.0764 30.7129 48.4479C30.2395 49.1784 29.6525 49.8299 29.0137 50.418C27.6518 51.673 26.0018 52.5923 24.2946 53.2878C20.4184 54.8659 16.1789 55.5319 12.5059 57.6123C10.8988 58.5225 9.36072 59.7785 8.39525 61.3807C8.23956 61.4049 8.08476 61.4335 7.92997 61.4657C8.04539 61.3198 8.16171 61.174 8.27893 61.0289C8.35588 60.934 8.23687 60.8088 8.14292 60.8928C6.31668 62.5184 4.63449 64.2737 3.10978 66.1875C1.65129 68.019 0.291224 69.9382 -0.67156 72.083C-2.40207 75.9356 -2.78324 80.3422 -1.88936 84.4617C-1.64598 85.5841 -1.30238 86.6833 -0.864832 87.7458C-0.639348 88.2946 -0.395073 88.8352 -0.12306 89.3625Z" fill="black"/>
<path fill-rule="evenodd" clip-rule="evenodd" d="M39.3024 9.01313C44.383 9.01313 50.7463 14.811 52.6087 17.2782C54.1745 19.3525 53.953 30.0386 53.953 36.3777C53.953 37.7035 53.3539 40.2126 53.1364 41.4808C52.3395 46.1278 48.8675 50.0252 41.9958 50.0252C36.4005 50.0252 32.0946 48.2522 27.9307 43.7176C26.9807 42.6831 22.3414 46.3866 21.3926 45.0529C18.9144 45.0529 16.8422 21.8889 21.7079 14.941C26.5736 7.99318 34.2218 9.01313 39.3024 9.01313Z" fill="white"/>
<path fill-rule="evenodd" clip-rule="evenodd" d="M24.0325 10.6447C26.9683 7.97269 30.8793 6.68728 34.8253 6.78217C36.869 6.8314 38.9055 7.22078 40.8356 7.88765C41.801 8.22243 42.7361 8.65926 43.63 9.15337C43.9521 9.33102 44.249 9.53917 44.5349 9.76024L44.6062 9.81576H44.6071C45.3739 10.0915 46.0584 10.5865 46.6794 11.1656C47.924 11.0663 49.1785 11.1782 50.382 11.5622C52.057 12.0975 53.6077 13.0776 54.6966 14.4695C55.965 16.09 56.3867 18.0556 56.2363 20.0848L56.2085 20.4295C56.0597 22.2219 55.7932 24.5275 54.3226 25.7052C54.2107 25.7947 54.0873 25.8628 53.9593 25.9039C54.9069 27.5277 55.6844 29.3305 56.1497 31.1512C57.9259 38.1055 56.5604 45.3578 54.4246 52.0606C54.2492 52.6129 53.4144 52.9799 52.9894 52.4401C52.2306 51.4751 51.1282 50.7393 49.8881 50.6015C49.123 50.5165 48.3616 50.6704 47.6386 50.3231C47.3549 50.1862 47.0811 49.9624 46.8843 49.6903C45.6638 50.153 44.3494 50.3715 43.0457 50.3177C40.9062 50.23 38.6192 49.4889 37.1473 47.8633C36.9111 47.6024 36.8512 47.3094 36.9056 47.0453C37.0902 46.9794 37.2797 46.9304 37.4749 46.8997C39.3415 48.0002 41.3989 48.7355 43.6101 48.7817C44.8878 48.8084 46.134 48.6296 47.17 47.8315C47.3941 47.6588 47.6003 47.4675 47.7909 47.2619C49.9569 45.868 51.484 43.5005 52.21 40.9645C52.8865 38.5996 52.8032 36.1371 52.5706 33.7113L52.4479 32.4312C52.269 30.5524 52.103 28.668 52.0565 26.7812L52.0705 26.7805C52.5279 26.7509 52.5312 26.0345 52.0705 26.0644C50.8788 26.1415 49.696 25.9459 48.5079 26.0311C48.498 25.4693 48.4576 24.9099 48.2925 24.368C48.1983 24.0584 47.6593 23.9973 47.6022 24.368C47.5258 24.8639 47.4979 25.357 47.4896 25.8552C45.7116 25.8315 43.9353 25.6819 42.157 25.7434C41.8289 25.3934 41.7245 24.7728 41.5711 24.3411C41.5487 24.2775 41.5263 24.2148 41.5031 24.1513C41.3682 24.7682 41.1771 25.3716 40.9257 25.9623L40.4895 25.9638C38.015 25.9754 35.4902 26.0494 33.0739 26.5635C32.9059 26.4345 32.806 26.2095 32.779 26.0051C32.6037 24.6753 32.3535 23.3809 31.9102 22.1136L31.8468 21.9348C31.8416 21.92 31.8361 21.9043 31.8304 21.8877C31.5037 22.4152 31.114 22.9069 30.6888 23.3647C30.4383 23.6346 30.1756 23.8927 29.906 24.1434C29.6441 24.4343 29.3734 24.7209 29.1111 25.0127C29.1214 25.0657 29.1303 25.1196 29.1376 25.1745C29.2178 25.7801 29.2261 26.3942 29.1674 27.0021C29.0611 28.101 28.7509 29.16 28.2527 30.1396L28.237 30.2377C28.1613 30.6968 28.0537 31.1712 27.8023 31.517C28.116 31.8686 28.3577 32.2886 28.4978 32.7552C28.6225 33.1706 28.048 33.5306 27.75 33.1907C27.5134 32.9206 27.2504 32.6971 26.9615 32.5188C26.9433 32.5436 26.9104 32.5558 26.8734 32.5351C26.069 32.0884 24.7027 32.2236 23.8992 32.6443C22.8997 33.167 22.5096 34.2403 22.6205 35.3279C22.727 36.3671 23.1815 37.5818 24.0629 38.1144C24.4673 38.3588 24.7823 38.3794 25.2118 38.2621C25.3491 38.2248 25.5194 38.1104 25.5925 38.0535L25.6644 37.9959C25.9459 37.7732 26.2082 37.6208 26.5406 37.6149C26.8805 37.5089 27.2222 37.656 27.3522 38.0126L27.3602 38.0357C27.421 38.2174 27.532 38.4456 27.5078 38.7231C27.4828 39.0203 27.3468 39.2906 27.1436 39.5081C27.1087 39.5457 27.0712 39.5833 27.0327 39.6182C30.5313 43.4073 30.9805 49.3116 29.1864 54.0451C29.1086 54.2527 29.0254 54.4577 28.9386 54.6609C28.6388 55.3573 27.4845 55.1416 27.3378 54.4515C27.294 54.2447 27.2456 54.0388 27.1928 53.8347C27.0958 53.4576 26.9846 53.084 26.8593 52.7158L26.8117 52.5779C26.7052 52.2736 26.6059 51.9666 26.4985 51.6622L26.4878 51.6274C26.4837 51.6137 26.4793 51.5978 26.4743 51.5799L26.2927 51.9764L25.7406 53.1732C25.4823 53.7317 24.6615 53.4282 24.6309 52.89L24.6302 52.8716C24.6275 52.7722 24.6239 52.6737 24.6177 52.5762C24.5783 51.8448 24.4521 51.1341 24.2517 50.4386L24.1794 50.5285C23.1026 51.8602 21.8389 53.1085 20.1053 53.4158C19.6704 53.4928 19.1783 53.038 19.4772 52.5985C19.6006 52.4168 19.7196 52.2306 19.8324 52.0418C19.7349 51.9961 19.6427 51.9487 19.5577 51.9003C18.9 51.5306 18.3524 51.0043 17.8997 50.4073C16.9396 49.1415 16.596 47.5482 16.5119 45.9889C16.4224 44.341 16.5673 42.6035 17.0174 41.0138C17.2125 40.3263 17.4764 39.6666 17.7816 39.0266C17.7601 38.9693 17.7395 38.912 17.7189 38.8547C17.3896 37.9363 17.1194 36.9973 16.8948 36.0476C16.4421 34.1302 16.1987 32.152 16.1692 30.1818C16.1155 26.6523 16.7239 23.0664 18.0061 19.775C19.3304 16.3807 21.3222 13.1107 24.0325 10.6447ZM22.3836 41.5034C22.1404 41.1204 21.532 41.4656 21.7578 41.8513L21.7662 41.865C22.1518 42.4728 22.3326 43.1639 22.5545 43.8415C22.6967 44.2774 23.3884 44.0912 23.2443 43.6508L23.1967 43.5038C22.9758 42.8166 22.7744 42.1183 22.3836 41.5034ZM24.5012 34.1919L24.6628 34.1137C25.1724 33.8704 25.6189 33.7047 26.221 33.9171C27.0272 34.2009 27.8907 35.104 27.3457 35.9804C27.1453 36.3035 26.7892 36.4324 26.4223 36.3563C25.8039 36.228 25.6443 35.6709 25.3304 35.2135L25.2764 35.136C25.0851 34.8593 24.8431 34.4767 24.5245 34.3682C24.452 34.3432 24.4216 34.2304 24.5012 34.1919ZM24.9559 15.5859L25.0079 15.5392C25.3542 15.2331 24.846 14.7282 24.5015 15.0326C22.9249 16.4263 22.3773 18.6077 21.5594 20.4669C21.376 20.885 21.9925 21.2502 22.1777 20.8286C22.9579 19.0545 23.4757 16.9322 24.9559 15.5859ZM43.902 14.9763C43.49 14.7905 43.1296 15.3903 43.5257 15.5877L43.5405 15.5948C44.9328 16.2241 45.5251 17.6491 46.0924 18.9721C46.2731 19.3946 46.8896 19.0303 46.7107 18.6114L46.6083 18.374C46.0164 17.0106 45.326 15.6209 43.902 14.9763ZM46.0843 14.115C45.6476 13.9637 45.4606 14.6548 45.8937 14.8061C47.0739 15.2169 47.8837 16.1031 48.5664 17.1164C48.8223 17.4959 49.4424 17.1379 49.1838 16.7548C48.391 15.5786 47.4497 14.5912 46.0843 14.115Z" fill="black"/>
<path fill-rule="evenodd" clip-rule="evenodd" d="M43.6875 43.7397C43.086 43.4942 42.5493 43.0847 42.1569 42.5617C42.0205 42.3798 41.9851 42.1878 42.0138 42.0122C42.0459 41.8147 42.1627 41.6357 42.322 41.5156C42.4818 41.3952 42.6816 41.3358 42.8748 41.3661C43.0427 41.3924 43.2098 41.4844 43.3421 41.6751L43.3697 41.7132C43.603 42.0289 43.907 42.288 44.2533 42.4549C44.5872 42.6159 44.9605 42.691 45.3469 42.6473C46.0827 42.5641 46.5899 42.166 47.129 41.6254C47.1958 41.5571 47.2627 41.4867 47.3299 41.4152C47.3723 41.3504 47.4312 41.3087 47.4966 41.2868C47.5691 41.2626 47.6513 41.2639 47.7265 41.2902C47.799 41.3155 47.8639 41.3635 47.9073 41.4274C47.9487 41.4881 47.9721 41.5631 47.9645 41.6493C47.9152 42.2096 47.6224 42.7096 47.2064 43.1022C46.7445 43.5383 46.1322 43.84 45.5557 43.9458C44.9206 44.0623 44.2735 43.9788 43.6875 43.7397ZM45.8556 35.0964C46.5313 35.5072 47.5608 36.4653 46.834 37.4839C45.9783 38.382 44.7465 37.3522 44.1394 36.8865C43.5765 36.5256 42.9441 37.4539 43.4663 37.8753C47.8529 41.1242 49.633 35.2038 46.1974 34.6133C45.8191 34.5482 45.6786 34.9693 45.8556 35.0964ZM37.9948 31.3171C38.0694 30.3901 39.4807 30.1796 39.6211 31.0969C39.7468 31.9186 39.5988 32.6735 39.2288 33.4133C38.8753 34.1201 37.9868 33.7904 37.9196 33.1468C37.8295 32.284 37.9483 31.8938 37.9948 31.3171ZM48.738 30.9067C48.9347 30.6489 49.2188 30.4729 49.5592 30.5723C50.6226 30.8832 50.3092 32.3936 49.9357 33.1287C49.7328 33.528 49.0768 33.6292 48.7804 33.2777C48.2972 32.7045 48.0658 31.5597 48.6801 30.995C48.6967 30.9658 48.7152 30.9364 48.738 30.9067ZM39.2139 27.2608L39.3819 27.2314C39.9015 27.1415 40.5477 27.0551 40.9153 27.473C41.1103 27.6947 41.1774 28.1066 40.9153 28.3188C40.4543 28.692 39.9446 28.5474 39.3922 28.579C38.9369 28.6051 38.4994 28.6805 38.0609 28.8059C37.0988 29.081 36.3149 29.5831 35.4932 30.1345C35.3854 30.2069 35.2753 30.0689 35.3268 29.968C35.8011 29.0386 36.7203 28.2752 37.641 27.8098C38.1324 27.5614 38.6702 27.3553 39.2139 27.2608ZM47.7682 26.8444L47.8968 26.8707C49.296 27.1633 51.1139 27.7478 51.7765 29.1227C51.8017 29.3171 51.775 29.3587 51.7533 29.386L51.7461 29.395C51.7282 29.4183 51.714 29.4503 51.6297 29.4768C51.6064 29.4712 51.5828 29.4653 51.5589 29.459C51.2552 29.3794 51.0149 29.2697 50.7823 29.1559L50.53 29.0316C50.2374 28.888 49.9421 28.7497 49.6293 28.6476C48.9616 28.4297 48.2748 28.2763 47.5774 28.1943C47.4262 28.1766 47.2807 28.1255 47.1658 28.0381C47.0568 27.955 46.9735 27.8401 46.9356 27.6873C46.8864 27.4895 46.9005 27.3398 47.0066 27.1615C47.0863 27.0275 47.2004 26.9346 47.3314 26.8813C47.465 26.8269 47.6171 26.8141 47.7682 26.8444Z" fill="black"/>
<path fill-rule="evenodd" clip-rule="evenodd" d="M53.4005 35.8975C52.798 36.7072 51.6812 36.9651 50.651 36.876C48.4292 36.6621 47.7299 34.1377 47.6571 32.1757C49.147 32.5949 47.5311 29.6254 52.6241 29.2989C54.4195 29.1492 53.9245 30.2339 54.7177 31.0265C54.7014 32.6898 54.4247 34.4972 53.4005 35.8975ZM42.8181 33.9862C41.5063 40.1316 34.3232 38.6698 33.5687 33.1302C34.2654 32.6382 34.0819 31.4235 34.9475 30.9833C36.3194 30.1065 38.0343 30.144 39.5922 30.1646C41.5836 30.3014 42.151 31.1266 43.1739 32.027C43.1247 32.6283 42.9828 33.341 42.8181 33.9862ZM56.2462 28.2811C56.1725 28.2688 56.0988 28.2573 56.0251 28.2465C55.9675 28.2138 55.9 28.1886 55.8214 28.1735C55.642 28.1279 55.4639 28.0972 55.286 28.0807C52.733 27.5059 46.8268 28.322 46.5831 30.5015C45.7701 30.773 45.0666 30.5298 44.1243 30.554C43.4071 27.5549 31.0069 27.9782 30.4105 29.7864C30.4083 29.7857 30.4061 29.7852 30.4037 29.7845C29.8307 29.6071 28.986 29.6498 28.3301 29.6217C26.9297 29.5924 25.5276 29.7172 24.1575 30.0127C21.5917 30.4206 18.0899 30.8982 19.8744 34.1035C19.8748 34.104 19.875 34.1046 19.8755 34.1052L19.8758 34.1049C20.1833 34.4203 20.7052 34.1663 20.7246 33.7394C20.1247 32.2209 21.4797 32.0386 22.5223 31.6022C25.1166 30.6698 27.7578 30.5406 30.4409 30.829C30.6427 31.0667 30.949 31.2741 31.2728 31.3826C33.0667 31.6804 32.1213 33.0117 33.2552 33.2053C33.0469 37.8458 38.6788 40.3789 41.9419 37.3284C43.2448 36.0541 43.5554 34.1663 43.8575 32.4648C44.0172 32.4289 44.1188 32.3415 44.1781 32.2259C44.5622 31.8422 44.8035 31.4879 45.5631 31.3826C46.3227 31.2773 46.9074 31.4886 46.9865 31.5533C47.0065 31.5935 47.0279 31.6338 47.0528 31.6741C47.0875 31.7342 47.1347 31.782 47.1884 31.8197C46.4383 36.4408 50.0243 39.3632 53.6445 36.9665C55.2175 35.4862 55.55 33.2199 55.6156 31.1971C55.8289 31.0684 55.9639 30.8189 55.8901 30.5052C55.7883 30.0729 56.0269 29.6985 56.4068 29.5106C56.9004 29.2665 56.8131 28.375 56.2462 28.2811Z" fill="black"/>
</g>
<defs>
<clipPath id="clip0">
<rect width="72" height="72" fill="white"/>
</clipPath>
</defs>
</svg>
