<svg width="72" height="72" viewBox="0 0 72 72" fill="none" xmlns="http://www.w3.org/2000/svg">
<g clip-path="url(#clip0)">
<rect width="72" height="72" fill="#F95A2C"/>
<path fill-rule="evenodd" clip-rule="evenodd" d="M69.7286 99.5015C69.3679 97.4639 69.0373 95.4207 68.7368 93.3732C68.5942 92.4011 68.455 91.4281 68.3299 90.4535C68.2424 89.7707 68.1089 88.9899 68.5733 88.4842C69.2268 87.7724 69.8204 87.1632 69.9004 86.1436C69.9756 85.1842 69.6514 84.1384 69.4486 83.2072C69.0234 81.2545 68.4941 79.3258 67.9091 77.4154C67.3149 75.4745 66.6633 73.5518 66.0024 71.6328C65.3844 69.8386 64.7904 68.0283 63.9855 66.3068C62.458 63.04 59.8739 60.6208 56.6803 59.0054C55.886 58.6036 54.2659 57.1695 53.4361 56.8484C52.6732 56.5532 52.6759 57.4153 51.9251 57.0905C51.3249 56.8309 50.766 56.4848 50.43 55.905C50.0651 55.2755 49.15 54.3951 49.0107 53.6623C48.7155 52.1091 49.0353 50.7872 47.9272 49.6181C46.9434 48.5801 45.6212 47.8689 44.2531 47.4872C41.2434 46.6474 37.2296 47.2345 35.4137 50.0323C34.5464 51.3683 34.2434 52.9833 33.0731 54.0737C32.0512 55.0258 32.2799 55.6767 30.9563 56.1674C30.8813 56.1953 28.8495 55.7593 28.7745 55.7871C27.3266 55.4772 25.9427 56.3449 24.6143 56.8484C22.6339 57.5989 20.7484 58.5759 18.977 59.7369C15.4051 62.0781 12.3459 65.1183 9.82374 68.5585C7.28077 72.0271 5.30769 75.9149 3.90279 79.9782C3.56161 80.9652 3.25515 81.9642 2.98484 82.9729C2.83353 83.5374 2.67184 84.123 2.85608 84.701C3.00676 85.1738 3.34194 85.5259 3.73556 85.8096C4.26912 86.1942 5.33936 86.4442 5.31852 87.2177C5.30259 87.8059 5.10314 88.4249 5.00579 89.006C4.88992 89.6982 4.79471 90.3944 4.69951 91.0896C4.26643 94.2539 3.92937 97.436 3.7803 100.627C3.63355 103.769 3.51177 106.976 3.72965 110.117C3.74406 110.324 3.8058 110.514 3.90539 110.675C3.81242 110.71 3.80526 110.884 3.92096 110.908C4.00202 110.925 4.08291 110.942 4.16398 110.96C4.33238 111.087 4.54238 111.165 4.78406 111.173C4.9479 111.178 5.11164 111.185 5.2753 111.194C7.00231 111.555 8.72906 111.896 10.4786 112.155C12.6053 112.468 14.7383 112.724 16.8779 112.933C21.2744 113.36 25.6363 113.218 30.0386 112.988C34.4341 112.758 38.8271 112.704 43.2271 112.818C47.6311 112.933 52.0334 113.125 56.4383 113.203C61.3595 113.291 66.2732 113.156 71.1802 112.765C71.853 112.711 72.2692 112.176 72.1365 111.507C71.3415 107.502 70.4406 103.524 69.7286 99.5015Z" fill="white"/>
<path fill-rule="evenodd" clip-rule="evenodd" d="M27.4015 55.6886C27.8565 55.6688 28.3206 55.7425 28.7746 55.7871C28.8141 55.791 28.8292 55.852 28.7846 55.8613C27.9721 56.0311 27.1685 56.2635 26.3704 56.4994L26.0288 56.6005C25.1289 56.8668 24.2554 57.1416 23.3842 57.4967C21.648 58.2046 19.999 59.1601 18.4814 60.2578C12.6374 64.4847 8.40776 70.8843 5.73863 77.5102C5.01377 79.3096 4.39959 81.1537 3.90209 83.0289C3.78112 83.4852 3.6673 83.9432 3.55939 84.4027C3.52772 84.5374 3.38965 84.8824 3.46535 85.0202C3.53228 85.1421 3.79248 85.2173 3.91337 85.2807L4.32149 85.4924C5.11756 85.9029 6.44362 86.5775 6.57659 86.6433L6.78399 86.7454C10.1762 88.409 13.8007 89.8198 17.6179 89.9174L17.6478 89.5913C17.818 87.7884 18.0413 85.976 18.5288 84.2285C18.555 84.1346 18.6745 84.1663 18.6854 84.2497C18.957 86.3184 18.8702 88.4033 18.7754 90.4816C18.6076 94.1626 18.3848 97.8415 18.1868 101.521C18.0877 103.362 17.9595 105.201 17.8439 107.041C17.728 108.884 17.6905 110.772 17.4259 112.6C17.3669 113.007 16.8898 113.229 16.5285 113.186C16.1287 113.138 15.8212 112.786 15.8193 112.382C15.8145 111.317 15.9483 110.24 16.0226 109.177C16.0932 108.168 16.169 107.159 16.2467 106.15C16.5305 102.469 16.857 98.7912 17.159 95.111C17.266 93.8058 17.3816 92.5016 17.5006 91.1976C13.4568 91.0672 9.67898 89.5688 6.07498 87.8181C6.02281 89.003 5.89683 90.1858 5.77487 91.3657C5.43441 94.6586 5.13421 97.9501 4.90953 101.253C4.79607 102.921 4.71348 104.592 4.64154 106.262C4.6062 107.083 4.57738 107.904 4.55528 108.726C4.54789 109 4.54121 109.274 4.53529 109.547L4.523 110.175C4.51294 110.572 4.47255 110.94 4.13823 111.23C3.79866 111.524 3.33999 111.539 3.00391 111.23C2.55402 110.815 2.63356 110.251 2.6469 109.694C2.65799 109.225 2.67132 108.755 2.6868 108.286C2.71785 107.347 2.75749 106.409 2.80572 105.471C2.97449 102.191 3.31169 98.925 3.75237 95.6718L3.92439 94.416C4.24564 92.0815 4.59833 89.6939 5.31647 87.445C5.03685 87.3059 4.75804 87.1659 4.4803 87.0251C3.98763 86.7756 3.47824 86.5414 2.99935 86.266C2.61943 86.0475 2.29176 85.7478 2.18599 85.3055C2.06804 84.8127 2.24841 84.2737 2.36823 83.7931L2.37864 83.7508C2.49612 83.2668 2.62265 82.7848 2.75615 82.3049C3.29749 80.359 3.96688 78.451 4.75026 76.5896C6.31881 72.863 8.34343 69.3227 10.8165 66.1216C13.0426 63.2402 15.6724 60.6271 18.7546 58.6673C20.2614 57.7092 21.8671 56.9224 23.5653 56.3662C24.3591 56.1062 25.2228 55.8801 26.0538 55.787C26.5021 55.7369 26.951 55.7082 27.4015 55.6886ZM35.4645 49.7834C36.0053 49.2025 37.0797 49.8037 36.8201 50.5729C36.2093 52.3828 35.2367 54.0337 33.7188 55.223C32.2919 56.341 30.5905 57.067 28.7582 56.9121C28.744 56.9108 28.7318 56.9073 28.721 56.9021L28.8789 57.1164C30.1186 58.794 31.4264 60.4484 33.0027 61.8195C36.2143 64.6133 40.5871 66.1202 44.8096 65.0483C48.1317 64.205 51.0585 61.577 51.9193 58.2277C51.7959 58.2831 51.6493 58.302 51.4883 58.267C50.7996 58.1174 50.1178 57.3928 49.6736 56.8732C49.1931 56.3112 48.8178 55.7043 48.5428 55.0183C48.0394 53.7627 47.8779 52.1462 48.5653 50.93C48.6501 50.7801 48.8457 50.8641 48.8624 51.0105L48.8886 51.2389C49.0211 52.3787 49.1861 53.4813 49.7233 54.5204C49.9862 55.0288 50.3014 55.5251 50.685 55.9509C50.8902 56.1787 51.1128 56.3964 51.353 56.5874C51.5871 56.7735 51.8705 56.9081 52.0803 57.1216L52.1188 57.1626L52.1198 57.1553C52.1729 56.7041 52.4892 56.5052 52.7987 56.5177C53.0982 56.5297 53.45 56.6616 53.5863 56.7248L53.5992 56.7309C55.6887 57.7343 57.6131 59.0422 59.4241 60.4932C63.1693 63.4941 65.9754 67.417 67.335 72.0366C68.0024 74.3038 68.3853 76.64 68.7895 78.9653L69.0383 80.39C69.4156 82.5367 69.837 84.7256 70.6887 86.7225C70.909 87.2391 70.7392 87.7236 70.199 87.9267C69.5245 88.1803 68.8475 88.426 68.1694 88.6685C68.5024 90.0974 68.7054 91.5758 68.9549 93.0118C69.4851 96.0641 70.1348 99.0969 70.6919 102.145C70.9767 103.704 71.2337 105.268 71.5182 106.826C71.6552 107.577 71.7982 108.327 71.9373 109.077C72.0122 109.482 72.0801 109.887 72.1516 110.292L72.164 110.36C72.205 110.573 72.2564 110.795 72.1976 111.008C72.1306 111.252 71.9403 111.425 71.7704 111.6C71.6305 111.744 71.4284 111.744 71.257 111.666L71.2007 111.64C70.8947 111.497 70.6549 111.354 70.5463 111.008C70.4776 110.79 70.4528 110.543 70.4079 110.318C70.3217 109.886 70.24 109.454 70.1629 109.02C70.0087 108.152 69.858 107.284 69.7109 106.415L69.5735 105.601C69.1019 102.797 68.6541 99.9757 68.4277 97.1417C68.3272 95.8844 68.2208 94.6282 68.1134 93.3718L68.0327 92.4294C67.9307 91.2367 67.8061 90.0137 67.7884 88.8049L67.383 88.9489L65.4046 89.6485C64.914 89.8219 64.2895 90.1773 63.7616 90.1127C63.5031 90.081 63.3061 89.9996 63.154 89.8517C63.3362 92.4237 63.5828 94.9912 63.9114 97.5456C64.2105 99.8699 64.542 102.191 64.9335 104.502C65.1274 105.646 65.3267 106.789 65.5432 107.929C65.6513 108.499 65.763 109.068 65.8781 109.637C65.9354 109.921 66.0037 110.205 66.0484 110.491C66.0996 110.819 66.0094 111.02 65.8265 111.29C65.6762 111.511 65.3757 111.625 65.132 111.472C64.8093 111.269 64.641 111.094 64.5461 110.725C64.4598 110.39 64.4074 110.04 64.3407 109.701C64.2175 109.074 64.0984 108.447 63.9834 107.819C63.743 106.506 63.5213 105.189 63.3234 103.869C62.6259 99.217 62.1833 94.5262 61.9598 89.8277C61.8495 87.5096 61.8154 85.1894 61.835 82.8689C61.845 81.6795 61.8839 80.4866 61.968 79.3001C62.0532 78.0991 62.2303 76.9221 62.3885 75.7327C62.3941 75.6908 62.4531 75.6883 62.4556 75.7327C62.5305 77.0662 62.6479 78.3983 62.7055 79.7353C62.7604 81.0112 62.7845 82.289 62.8281 83.5652C62.8855 85.2429 62.965 86.9215 63.0703 88.599C63.261 88.3903 63.5484 88.27 63.836 88.317C64.2526 88.2296 64.7011 88.0109 65.0983 87.8781L66.5956 87.3778C67.3827 87.1148 68.1699 86.8536 68.9598 86.6003C68.2536 84.2234 67.7698 81.8111 67.3567 79.3636L67.1724 78.2629C66.8077 76.0964 66.4145 73.9288 65.754 71.8307C65.0595 69.6249 64.0203 67.5742 62.6417 65.717C61.2828 63.8868 59.6296 62.2752 57.9273 60.7678C56.47 59.4774 54.911 58.3122 53.4246 57.0573C53.4402 57.1404 53.4435 57.232 53.4298 57.3326C53.1138 59.6465 51.9071 61.8014 50.2256 63.4041C46.8473 66.624 41.8467 67.292 37.5229 65.7821C33.3404 64.3216 29.6426 60.8627 28.3361 56.5824C28.3137 56.5092 28.4118 56.4801 28.4512 56.5339C28.5237 56.6333 28.5965 56.7326 28.6694 56.832C28.6645 56.7925 28.685 56.7495 28.7337 56.7307C30.258 56.1419 31.7549 55.3068 32.8975 54.1255C33.4544 53.5497 33.9405 52.8973 34.3242 52.1938C34.508 51.8567 34.673 51.5077 34.8048 51.1471L34.8382 51.0538C34.9978 50.602 35.1312 50.1413 35.4645 49.7834Z" fill="black"/>
<path fill-rule="evenodd" clip-rule="evenodd" d="M34.3608 14.2238L35.1336 15.1432C34.7056 15.4449 34.3017 15.748 33.9217 16.0526L33.9214 16.0517C35.6815 14.9029 37.6308 14.2238 39.7366 14.2238C43.7925 14.2238 52.0309 17.7092 53.8933 20.2231C54.8175 21.4708 56.535 25.3008 57.4259 29.4648C58.1417 32.8104 59.2064 42.2625 58.1417 45.8141C56.7791 50.3596 52.2962 54.5608 47.6737 54.5608C43.0512 54.5608 35.8748 51.2223 30.7671 43.9062C30.5336 43.5717 27.8516 43.1839 25.9383 41.9283L26.4407 47.4645L26.8224 50.685L26.7382 50.9142C25.3679 54.6215 24.282 56.5557 23.4806 56.7166C22.6628 56.8808 20.9973 55.5397 18.4842 52.6933L18.163 51.3449C17.3474 47.9053 16.9396 46.0591 16.9396 45.8061L16.9401 45.76C16.9522 45.1779 17.1526 41.883 17.1568 40.9964L17.1568 27.7069C19.8596 18.7182 22.4388 14.2238 24.8945 14.2238H34.3608Z" fill="white"/>
<path fill-rule="evenodd" clip-rule="evenodd" d="M27.9567 11.1625C28.7514 10.8546 29.672 10.9128 30.4263 11.3765C31.9072 11.3129 33.3801 12.1794 34.1522 13.4442C34.1683 13.4621 34.1854 13.48 34.2006 13.4979L34.3642 13.6887C34.5192 13.8709 34.6826 14.0717 34.8121 14.2791C34.1778 14.2936 33.6495 14.5522 33.2806 15.0745C33.0175 15.4472 33.6203 15.8014 33.8893 15.4489L33.8988 15.436C34.1202 15.1224 34.4545 15.0009 34.8267 14.9946C34.9335 14.9928 35.0146 14.9519 35.0718 14.8916C35.0946 14.9747 35.115 15.0588 35.1337 15.1432C37.0076 14.4141 39.0276 14.221 41.0396 14.394C40.9513 14.5368 40.8776 14.6899 40.8209 14.8507C40.7565 15.0331 40.8938 15.2425 41.0709 15.2911C41.2624 15.3438 41.4354 15.2315 41.5047 15.058L41.5111 15.041C41.5884 14.8219 41.7147 14.6339 41.8841 14.488C42.8313 14.6165 43.7717 14.8208 44.6891 15.0841C45.7917 15.4009 46.884 15.7875 47.9522 16.2301C47.7713 16.3011 47.6149 16.4211 47.5055 16.6213C47.287 17.021 47.8877 17.379 48.1156 16.9969L48.1236 16.9828C48.146 16.9418 48.1658 16.9172 48.1803 16.9031L48.1855 16.8984L48.2169 16.8839L48.2756 16.867L48.2982 16.8615C48.3181 16.857 48.3263 16.8573 48.3786 16.8544C48.4482 16.8505 48.518 16.8508 48.5877 16.8507C48.7516 16.8506 48.8562 16.7593 48.9035 16.6423C49.4306 16.8804 49.951 17.131 50.4622 17.3935L50.5838 17.4565C52.1616 18.2812 53.6565 19.3643 54.5236 20.958C54.581 21.0645 54.5988 21.1808 54.5846 21.2918C54.7697 21.5138 54.9487 21.743 55.1204 21.9757C55.6448 22.6882 56.0286 23.4983 56.3919 24.3013C57.123 25.9161 57.6151 27.5748 57.999 29.3042C58.3704 30.9709 58.67 32.6555 58.9484 34.3402C59.257 36.2119 59.5138 38.0997 59.5676 39.9983C59.6624 43.3828 59.0011 46.787 57.1015 49.6362C55.4069 52.1783 52.855 54.1968 49.8287 54.8431C46.7507 55.5002 43.4937 54.8592 41.068 52.8076C40.6769 52.4773 40.7307 51.8104 41.068 51.4721C41.4501 51.0907 42.0137 51.1436 42.4029 51.4721C44.6873 53.4047 48.0123 53.7027 50.7647 52.7181C53.3095 51.8069 55.303 49.7051 56.5261 47.3446C58.0186 44.4659 58.2702 41.1593 58.041 37.9744C57.9158 36.2253 57.6554 34.4905 57.3869 32.7585L57.2249 31.7158C57.0481 30.5866 56.8624 29.4588 56.6202 28.341L56.5635 28.0806C56.2674 26.7326 55.9207 25.3501 55.3845 24.0829C55.1034 23.4178 54.7653 22.7769 54.419 22.144C54.3519 22.0214 54.2829 21.8969 54.2122 21.7716C54.1174 21.8047 54.0091 21.8101 53.8955 21.7743C52.9175 21.47 51.9127 21.2659 50.89 21.1978C50.4241 21.1667 49.9575 21.1619 49.4914 21.18C48.6935 21.1336 47.8734 21.2038 47.1133 21.4485C47.039 21.3847 46.9636 21.3222 46.8882 21.2597C46.8679 21.2581 46.8476 21.2559 46.8272 21.2519C46.6333 21.2138 46.4969 21.0759 46.4148 20.9018C46.4105 20.8926 46.4066 20.8834 46.403 20.8742C46.3057 20.7998 46.2076 20.7266 46.1087 20.6543C45.8674 20.7169 45.6561 20.5161 45.5992 20.2961C45.5455 20.2598 45.4909 20.2248 45.4367 20.1892C45.3942 20.1996 45.3519 20.2082 45.3108 20.2112C45.1332 20.224 44.9616 20.1968 44.8043 20.1121C44.605 20.0047 44.4777 19.8316 44.3925 19.635C44.0911 19.6535 43.7862 19.5556 43.5168 19.3788C43.2981 19.2353 43.1306 19.0372 42.9641 18.8394C40.9349 17.934 38.7291 17.3995 36.5181 17.2625C36.3003 17.3044 36.084 17.3542 35.8704 17.4123C35.8199 17.426 35.7481 17.4531 35.6655 17.4855C36.1584 17.4259 36.6577 17.4199 37.1641 17.4929C39.5669 17.8405 41.4384 19.6402 43.0491 21.3391C43.4322 21.2617 43.8195 21.758 43.4649 22.0867L40.7003 24.6496C40.7681 24.9362 40.4395 25.2187 40.1517 25.1499C39.669 25.0338 39.1856 24.9211 38.7018 24.8102C38.1971 25.0544 37.5626 25.0126 37.1049 24.6585C37.0836 24.642 37.0373 24.6157 36.9971 24.5896C36.9595 24.6207 36.909 24.6518 36.8889 24.665C36.7261 24.7728 36.5278 24.8045 36.3377 24.7743C36.1421 24.7432 35.9655 24.6439 35.8133 24.5203C35.7164 24.4416 35.4907 24.113 35.365 24.0888L35.3528 24.0874C35.4366 24.0898 35.1671 24.3404 35.0947 24.3922C34.9258 24.5128 34.7391 24.5762 34.5289 24.5531C34.1625 24.5127 33.8476 24.1788 33.6684 23.8704L33.6549 23.8467L33.6493 23.832L33.6445 23.8479C33.6437 23.8507 33.6426 23.8537 33.6414 23.8571C33.6146 23.9297 33.5303 24.0122 33.473 24.063C33.3098 24.2074 33.1078 24.2708 32.892 24.2331C32.7093 24.2013 32.5557 24.0909 32.4322 23.9573L32.413 23.9361C32.3765 23.8948 32.1358 23.5714 32.1738 23.4939L32.1782 23.4873L32.1662 23.4848C32.0198 23.5208 31.897 23.4847 31.8069 23.4093C31.3046 23.2992 30.8088 23.1709 30.3289 23.0078C30.2913 23.1134 30.2545 23.2191 30.2188 23.3256C30.4809 23.4876 30.7234 23.7185 30.9462 23.8832C31.3686 24.1947 31.7908 24.5063 32.2123 24.8187L33.8821 26.0509L34.0731 25.9996C34.3171 25.9341 34.5264 26.0762 34.616 26.2934L34.6234 26.3122C34.6589 26.4073 34.7016 26.4953 34.7519 26.5796C35.1694 26.5629 35.5228 26.8193 35.6371 27.187C35.7401 27.1847 35.8443 27.1886 35.9508 27.2003C36.2424 27.2324 36.4389 27.449 36.3861 27.7465L36.3821 27.7669L36.3751 27.8C36.5441 27.8718 36.6667 28.0104 36.6939 28.2201C36.7392 28.2882 36.7757 28.3623 36.799 28.4448C36.921 28.8731 36.6837 29.4024 36.5573 29.8127L36.5476 29.8448C36.4665 30.1144 36.3825 30.3828 36.2976 30.6509L36.086 31.3168C35.4994 33.1726 34.9274 35.1293 35.4022 37.0748C35.5034 37.4865 34.9772 37.6727 34.749 37.3505C34.1958 36.5703 33.5982 35.8351 32.9707 35.1294L32.9403 35.1246C32.5008 35.0362 32.3302 34.7257 32.1285 34.4092C32.0097 34.4442 31.8819 34.4524 31.7584 34.4286C31.5797 34.3941 31.4195 34.292 31.2931 34.163C31.186 34.0536 31.0878 33.7731 30.9612 33.7035C30.8028 33.6166 30.4845 33.7409 30.2953 33.7129C30.1415 33.6903 29.9979 33.6375 29.8586 33.5712C29.6025 33.9203 29.4327 34.3309 29.3911 34.7734C29.3749 34.9417 29.3248 35.084 29.2523 35.2022C29.519 35.1923 29.7865 35.2111 30.0506 35.2604C31.0277 35.4421 31.7283 36.0454 32.122 36.9441C32.1389 36.9835 32.0879 37.0157 32.0646 36.9781C31.4804 36.0785 30.2089 36.0329 29.2855 36.3497C28.3048 36.6863 27.7545 37.5501 27.5586 38.5356C27.3439 39.6161 27.6194 40.7806 28.2073 41.7008C28.4802 42.1287 28.8525 42.519 29.3472 42.6765C29.9352 42.8636 30.4782 42.5288 31.0804 42.7016C31.4902 42.8188 31.671 43.2154 31.5967 43.6119C31.5671 43.7677 31.5126 43.9037 31.4392 44.0219C31.6558 44.4516 31.8562 44.8938 32.1112 45.3001C32.5049 45.9276 32.981 46.4468 33.4999 46.9705C34.0358 47.5111 34.5817 48.041 35.1552 48.5423C35.7047 49.023 36.3346 49.3649 36.9109 49.8053C37.3153 50.1142 37.5156 50.5474 37.3161 51.0433C37.1516 51.4533 36.5967 51.8024 36.1475 51.6171C35.2876 51.2626 34.5351 50.6593 33.8498 50.0381C33.2145 49.4616 32.6615 48.7724 32.2436 48.024C31.8494 47.3185 31.559 46.5173 31.3139 45.7456L31.2835 45.6492C31.1681 45.2822 31.0465 44.8696 30.9677 44.4534C30.4962 44.7111 29.8563 44.7487 29.3518 44.6789C28.5365 44.567 27.793 44.1562 27.231 43.5573C26.9691 43.2787 26.7377 42.9608 26.5378 42.6163C26.5559 42.826 26.5668 43.0289 26.5784 43.2136C27.0456 43.7254 27.2329 44.4641 27.0671 45.138C27.458 45.5405 27.5675 46.1446 27.3635 46.659C27.7913 47.0834 27.7752 47.7589 27.5902 48.3723C28.0959 48.9378 28.1438 49.8187 27.7489 50.4567L27.737 50.5026C28.1358 51.17 28.0458 52.0325 27.5463 52.6219C27.8874 53.2839 27.8347 54.1744 26.982 54.4313C26.6713 54.5248 26.3701 54.445 26.1447 54.2708C26.3505 55.2947 26.4426 56.3342 26.1681 57.3629C26.0589 57.7711 25.6598 58.0692 25.2402 58.0692C24.8894 58.0692 24.6344 57.8928 24.4582 57.6333C24.4788 58.1497 24.4475 58.6689 24.3374 59.1926C24.271 59.5088 23.9778 59.7554 23.6665 59.8318C23.7788 59.9584 23.8235 60.1417 23.7159 60.3324C23.2595 61.1407 22.1566 60.8055 22.0821 60.0311C21.7706 59.7986 21.6259 59.4167 21.5659 59.0042C21.4786 58.4024 21.4469 57.8107 21.3479 57.2167L21.3101 57.2521L21.2906 57.2689L21.2843 57.3119C21.2276 57.6055 21.0621 57.8111 20.8472 57.9338C20.8939 58.4459 20.8075 58.9675 20.4827 59.3565C20.2663 59.6157 19.8978 59.7177 19.5818 59.6615C19.562 59.6625 19.5417 59.6624 19.5205 59.6597C18.805 59.5645 18.391 58.8855 18.5793 58.2624C18.2912 57.9091 18.1699 57.4609 18.2551 57.018C17.6976 56.6487 17.709 55.8375 17.9021 55.186C17.3176 54.7245 17.0977 53.8619 17.3914 53.1763C16.8646 52.5219 16.7914 51.6099 17.1493 50.8647C16.5697 50.3884 16.573 49.4689 17.1478 48.9817C16.8417 48.3738 16.6572 47.6455 16.9631 47.0892C16.7473 46.8509 16.6288 46.5113 16.6538 46.1831C16.6903 45.7012 17.0091 45.3682 17.4046 45.1463L17.4319 44.9955C17.5248 45.0071 17.6238 44.9811 17.711 44.8973C17.7974 44.8144 17.8862 44.7475 17.9781 44.6923C18.0822 44.691 18.1717 44.6446 18.2347 44.5733C18.4071 44.5148 18.5924 44.4889 18.7979 44.4866C19.2418 44.4817 19.2575 43.8176 18.8444 43.7746C18.7791 43.7088 18.6893 43.6673 18.5918 43.6673L18.5155 43.6676C18.3372 43.6693 18.157 43.6803 17.9915 43.7513C17.884 43.7973 17.801 43.8667 17.7403 43.9515C17.7289 44.0799 17.6591 44.2079 17.508 44.3136C17.3334 44.4357 17.0947 44.4499 16.9079 44.3395C16.6463 44.1848 16.6436 43.9434 16.6738 43.6809C16.7398 43.1068 16.4098 42.5665 16.4884 41.9791C16.5232 41.7194 16.6096 41.4952 16.7506 41.3141C16.4534 40.8692 16.401 40.2947 16.6298 39.8063C16.1531 39.2933 16.0707 38.5025 16.3747 37.8851C16.3791 37.8702 16.3825 37.8549 16.3872 37.8401C16.4216 37.7352 16.4689 37.6406 16.5211 37.5501C16.2542 37.0877 16.2562 36.5203 16.5274 36.0598C16.1166 35.5807 16.1035 34.8183 16.4689 34.3022C16.471 34.2594 16.4755 34.2166 16.4792 34.1738C16.3115 33.7384 16.3518 33.2433 16.5645 32.8383C16.4886 32.6633 16.4301 32.4749 16.3927 32.2742C16.2968 31.7568 16.3461 31.2537 16.4893 30.7489C16.5125 30.6692 16.5384 30.5896 16.5662 30.5099C16.5708 30.1641 16.584 29.8198 16.6013 29.4762C16.5333 29.1853 16.5223 28.8656 16.5208 28.5689L16.5204 28.3764C16.517 27.8867 16.4829 27.1696 16.7924 26.7533C16.5937 26.3036 16.6754 25.737 17.0071 25.3805C16.7743 24.98 16.7254 24.4881 16.9594 24.0436C16.997 23.9721 17.0406 23.9055 17.0883 23.8425C17.069 23.4355 17.1546 23.0158 17.3715 22.6113C17.5123 22.3479 17.7227 22.1199 17.9727 21.9375C17.9685 21.8835 17.9659 21.8296 17.9668 21.7766C17.9712 21.5397 18.0237 21.3019 18.1122 21.08C17.9535 20.8091 17.88 20.5038 17.9727 20.1747C18.0765 19.8023 18.3495 19.4819 18.6904 19.3011C18.7178 18.95 18.7727 18.601 18.8511 18.2566C18.6416 17.79 18.8084 17.1741 19.2818 16.8993C19.2201 16.5263 19.2757 16.1396 19.547 15.8484C19.6498 15.738 19.771 15.6543 19.9014 15.5988C19.8385 15.2238 19.9094 14.8337 20.1686 14.5284C20.3803 14.2791 20.694 14.1277 21.0133 14.1054C21.1362 13.4532 21.7591 12.9655 22.4162 13.0044C22.4984 12.7172 22.6946 12.4668 22.999 12.3399C23.0769 12.3074 23.1557 12.286 23.2341 12.2741C23.7685 11.7349 24.5641 11.3694 25.2528 11.1822C25.9436 10.9952 26.6439 10.9771 27.237 11.1945L27.2803 11.2109L27.3286 11.2046C27.538 11.1813 27.7473 11.1679 27.9567 11.1625ZM22.7072 55.3584C22.5227 55.3009 22.3169 55.4266 22.2669 55.6085C22.2141 55.8007 22.3317 55.9912 22.5169 56.049C22.7476 56.1209 22.99 56.1389 23.2306 56.1391C23.4239 56.1393 23.5885 55.9744 23.5885 55.781C23.5885 55.5867 23.4246 55.4232 23.2306 55.423C23.035 55.4228 22.8905 55.4156 22.7072 55.3584ZM21.0656 51.5559C20.7897 51.5562 20.5531 51.6221 20.3486 51.8154C20.2122 51.9444 20.2088 52.1935 20.3486 52.3219C20.4897 52.4515 20.6945 52.459 20.8395 52.3356L20.8674 52.3106C20.8707 52.3075 20.8733 52.3051 20.8754 52.3031C20.8871 52.2956 20.8988 52.2879 20.9111 52.2814L20.8878 52.2967C20.87 52.3095 20.9112 52.2886 20.9344 52.2787L20.9416 52.2757L20.944 52.2752L20.9625 52.2737C20.9968 52.272 21.0312 52.272 21.0656 52.272C21.2527 52.2719 21.4321 52.1075 21.4235 51.914C21.4147 51.7201 21.2662 51.5557 21.0656 51.5559ZM26.2712 49.2843C26.6586 49.0467 26.3126 48.4388 25.924 48.6577L25.91 48.666C25.7108 48.7883 25.4658 48.7717 25.2401 48.7718C24.7796 48.7721 24.7788 49.4882 25.2401 49.4879L25.3164 49.4876C25.6472 49.4851 25.9818 49.462 26.2712 49.2843ZM23.2225 46.6706C22.9297 46.6155 22.6019 46.5663 22.2939 46.5999L22.2428 46.6063H22.148C22.0657 46.6063 21.986 46.6394 21.922 46.6915C21.8207 46.7335 21.7248 46.7899 21.6373 46.8658C21.2886 47.1682 21.7967 47.6729 22.1434 47.3722C22.1627 47.3555 22.185 47.3417 22.2099 47.3304L22.229 47.3224H22.6119C22.6467 47.3224 22.6806 47.3151 22.7136 47.3046C22.8379 47.3217 22.9537 47.3464 23.0321 47.3611C23.4824 47.4459 23.6753 46.7558 23.2225 46.6706ZM22.8958 39.7977C22.3348 39.5374 21.7134 39.5393 21.1945 39.9008C20.8235 40.1592 21.1682 40.7688 21.5424 40.5281L21.5558 40.5191C21.6023 40.4867 21.6501 40.4596 21.6984 40.435C21.9618 40.5111 22.227 40.5147 22.4816 40.4211L22.5148 40.4083L22.5346 40.416C22.9497 40.6086 23.3137 39.9916 22.8958 39.7977ZM29.0046 38.6757C28.4378 38.6121 28.4332 37.7165 29.0046 37.7806C30.2108 37.9159 31.3053 38.4524 32.1069 39.3736C32.4798 39.8021 31.8658 40.4289 31.4859 40.0196L31.4742 40.0066C30.8368 39.274 29.9766 38.7847 29.0046 38.6757ZM22.6554 34.0772C22.5294 34.0634 22.4037 34.0566 22.28 34.0625C21.9827 34.0769 21.6207 34.2752 21.7512 34.6336C21.8558 34.9208 22.1986 34.9322 22.3679 34.779C22.4384 34.7807 22.5087 34.7854 22.5787 34.7925C22.7657 34.8118 22.9508 34.8474 23.135 34.8837C23.585 34.9723 23.7777 34.2822 23.3254 34.1931L23.1253 34.1536C23.0579 34.1404 22.9899 34.1274 22.9215 34.1156C22.8807 34.0953 22.8368 34.0816 22.79 34.0781L22.7663 34.0772H22.6554ZM19.099 28.5217L19.057 28.516C18.4525 28.4386 17.4823 28.5098 17.4089 29.2795C17.3684 29.7058 17.984 29.7325 18.1055 29.368C18.5518 29.2875 19.0018 29.2722 19.4451 29.321C19.6142 29.1492 19.6156 28.8188 19.3341 28.7363C19.2943 28.6295 19.2114 28.5379 19.099 28.5217ZM32.9151 27.2217C32.7754 27.0934 32.5464 27.0764 32.4089 27.2217C32.3297 27.3053 32.2636 27.3982 32.2113 27.5004L32.1764 27.5695C32.1705 27.5809 32.1645 27.5923 32.1582 27.6036C32.1465 27.6244 32.1333 27.6443 32.1205 27.6645L32.1119 27.673C32.1085 27.6764 32.1045 27.6806 32.0997 27.6857C31.9709 27.8219 31.9545 28.0588 32.0997 28.1921C32.2394 28.3204 32.4683 28.3374 32.6059 28.1921C32.685 28.1085 32.7511 28.0157 32.8035 27.9134L32.8383 27.8444C32.8442 27.833 32.8502 27.8216 32.8565 27.8103C32.8682 27.7894 32.8814 27.7695 32.8942 27.7493L32.9084 27.7351C32.9105 27.7329 32.9127 27.7306 32.9151 27.7281C33.0438 27.592 33.0601 27.355 32.9151 27.2217ZM25.5756 26.2891C25.0713 25.9316 24.4716 25.915 24.008 26.3451C23.6735 26.6555 24.165 27.1529 24.5023 26.862L24.5142 26.8514C24.5264 26.84 24.5389 26.83 24.5512 26.8204C24.6117 26.8719 24.6886 26.9046 24.7764 26.9047C24.7994 26.9048 24.8223 26.9047 24.8453 26.9052L24.8796 26.9064L24.898 26.9079L24.9004 26.9084L24.9165 26.9152C24.9459 26.9285 24.9865 26.949 24.9308 26.9141C24.9432 26.9206 24.9549 26.9283 24.9667 26.9359L24.9873 26.9546C25.1222 27.0822 25.3556 27.099 25.4896 26.9579C25.7268 26.8777 25.8527 26.4854 25.5756 26.2891ZM30.506 25.1162L30.5152 25.1133C30.9574 24.987 30.7694 24.2959 30.3248 24.4227C29.8532 24.5574 29.628 24.9965 29.5337 25.4462C29.494 25.6354 29.5891 25.8333 29.7837 25.8867C29.9614 25.9355 30.1841 25.8267 30.224 25.6366C30.252 25.5029 30.2842 25.3895 30.3353 25.2842L30.3662 25.2241C30.3807 25.1967 30.3857 25.1922 30.4345 25.1496C30.4427 25.1424 30.48 25.1251 30.506 25.1162ZM23.0161 21.5096L22.947 21.4938C22.5162 21.3994 21.9444 21.3501 21.6843 21.7773C21.4471 22.1665 22.0453 22.5208 22.2916 22.1529C22.2954 22.1528 22.2997 22.1529 22.3047 22.1533L22.3128 22.1542L22.4233 22.1452C22.5608 22.1443 22.6924 22.1686 22.8258 22.2002C23.2738 22.3063 23.465 21.6159 23.0161 21.5096ZM38.4811 18.7567C38.8073 18.4305 38.3013 17.9239 37.9751 18.2505C37.7171 18.5085 37.4683 18.7684 37.3006 19.0963C37.2126 19.2683 37.2557 19.4847 37.429 19.5862C37.5889 19.6797 37.8303 19.6305 37.9187 19.4577C38.064 19.1735 38.2474 18.9907 38.4811 18.7567ZM34.3656 17.9001C34.0434 18.091 33.8348 18.4053 33.7082 18.7692C33.6446 18.9518 33.7806 19.1608 33.9582 19.2096C34.149 19.2621 34.3235 19.1502 34.3921 18.9765L34.3984 18.9595C34.4323 18.8622 34.4865 18.7473 34.5536 18.6605C34.6108 18.5865 34.6999 18.5124 34.767 18.4878C34.9283 18.4285 35.0426 18.2823 35.0277 18.1115C34.7624 18.2032 34.5161 18.0928 34.3656 17.9001ZM24.7201 16.3427C24.3951 16.0409 23.959 16.0008 23.5649 16.1835C23.3894 16.2648 23.3455 16.5179 23.4365 16.6734C23.5417 16.8534 23.7501 16.8835 23.9261 16.8019C23.8809 16.8228 23.9625 16.7952 23.9978 16.7851C24.0023 16.7872 24.0614 16.7845 24.0818 16.7848L24.1063 16.7863C24.1065 16.7865 24.1005 16.7864 24.0882 16.786C24.1054 16.7898 24.1224 16.7945 24.1391 16.7998L24.1605 16.8072C24.1497 16.805 24.1981 16.8365 24.2115 16.847L24.214 16.849C24.5513 17.1622 25.0587 16.657 24.7201 16.3427Z" fill="black"/>
<path fill-rule="evenodd" clip-rule="evenodd" d="M50.6921 43.9422C50.9991 43.4003 51.9152 43.4884 52.0552 44.1204C52.3393 45.4017 50.812 46.5849 49.652 46.6145C48.4992 46.6437 47.2058 45.6622 47.3727 44.4225C47.414 44.1158 47.8234 44.153 47.963 44.3453L48.0172 44.4191C48.3963 44.9286 48.8966 45.456 49.6002 45.3317C49.8918 45.2803 50.1567 45.0981 50.3329 44.8635C50.5455 44.5804 50.5222 44.2423 50.6921 43.9422ZM43.3625 34.5684C43.5187 34.5253 43.6764 34.542 43.8148 34.6009C44.1239 34.6575 44.382 34.9153 44.4727 35.2096C44.4799 35.2351 44.4879 35.2603 44.4967 35.2852L44.5105 35.3223L44.4734 35.228C44.4905 35.3209 44.5661 35.4186 44.5933 35.5118C44.6268 35.6265 44.635 35.7567 44.6237 35.883C44.7219 35.8839 44.8202 35.8872 44.9182 35.8958L45.013 35.9042C45.543 35.9535 46.1248 36.0439 46.439 36.502C46.6155 36.7595 46.4498 37.223 46.1257 37.2726C45.6266 37.3489 45.1968 37.0727 44.6995 37.0174C44.2293 36.965 43.7374 36.995 43.2734 37.0799C42.3153 37.2551 41.435 37.6436 40.5014 37.8874L40.3743 37.9196L40.3745 37.919C40.2145 37.9577 40.0328 37.7352 40.1911 37.605C40.9391 36.9903 41.8967 36.4922 42.84 36.1888C42.7026 35.9701 42.6601 35.6821 42.754 35.4473C42.7686 35.3986 42.7866 35.3513 42.8057 35.3042L42.8454 35.2071C42.8492 35.1614 42.858 35.1162 42.8707 35.0719L42.8728 35.0584L42.8739 35.0592C42.9442 34.8308 43.1276 34.6332 43.3625 34.5684ZM52.9045 34.6036C53.109 34.3989 53.3965 34.4292 53.61 34.5903L53.6383 34.6125C53.8395 34.7019 54.006 34.8973 54.1154 35.0784C54.2289 35.2665 54.3044 35.458 54.3073 35.6651C54.8025 35.6667 55.2768 35.8153 55.6404 36.2152C55.7578 36.3443 55.8379 36.5434 55.7733 36.7184L55.7348 36.8225C55.6128 37.153 55.0639 37.3433 54.8774 36.9546L54.8688 36.9356C54.6706 36.4741 53.9098 36.5225 53.5054 36.5697C53.2236 36.6027 52.9452 36.6728 52.673 36.7513C52.5771 36.779 52.4821 36.809 52.3871 36.8397L52.2922 36.8705C52.2415 36.8868 51.9778 37.0302 52.1419 36.9962C52.186 36.9871 52.2192 37.0514 52.1742 37.0729C51.9786 37.1665 51.7699 36.9802 51.783 36.77C51.8056 36.4052 52.3847 36.2052 52.6634 36.0794L52.6801 36.0717C52.7869 36.0223 52.8988 35.975 53.0144 35.931C52.9494 35.8344 52.8957 35.7269 52.8511 35.6116C52.8088 35.5028 52.7806 35.397 52.7652 35.2813C52.7499 35.2247 52.7499 35.1681 52.7652 35.1114L52.7675 35.0952C52.7596 35.0578 52.7559 35.0192 52.7564 34.9802L52.7548 34.9651H52.7564C52.7618 34.8288 52.816 34.6922 52.9045 34.6036ZM49.636 38.4891C50.4219 38.732 51.7184 39.3938 51.3089 40.4152C50.7371 41.3533 49.2205 40.6639 48.4856 40.3608C47.8253 40.142 47.4816 41.0677 48.12 41.3467C53.3955 43.4346 53.3761 37.9242 49.8273 38.0052C49.4366 38.014 49.4243 38.4083 49.636 38.4891ZM42.6565 31.304L42.7905 31.2649C43.4871 31.0631 44.1982 30.7145 44.8167 31.2584C45.0595 31.472 45.1095 31.9158 44.9358 32.1821C44.5399 32.7891 43.9528 32.6964 43.3135 32.7481C42.8268 32.7875 42.3473 32.9306 41.8929 33.1093C41.5215 33.2555 41.1771 33.4613 40.852 33.6908C40.5325 33.9165 40.3143 34.2692 39.9866 34.4723C39.8666 34.5468 39.7279 34.4702 39.6847 34.3494C39.5319 33.9211 39.7902 33.3875 40.0087 33.0226C40.2754 32.5773 40.6805 32.2132 41.1162 31.9377C41.5933 31.6359 42.1208 31.4617 42.6565 31.304ZM52.8066 30.8431C53.9841 30.8428 55.1171 31.4979 55.7756 32.4583C55.9994 32.7846 55.8354 33.268 55.5142 33.4558C55.1538 33.6667 54.7685 33.5149 54.531 33.2127L54.5169 33.1944C54.1392 32.6912 53.6524 32.295 53.0753 32.037C52.7937 31.911 52.4823 31.8089 52.1777 31.7571L52.0793 31.7402C51.9413 31.7171 51.7813 31.695 51.6565 31.7166C51.5896 31.7254 51.5283 31.7475 51.4717 31.7811C51.4989 31.8406 51.4287 31.9122 51.3638 31.8766C51.0712 31.7158 51.1071 31.429 51.3488 31.2061C51.6907 30.8908 52.3651 30.8432 52.8066 30.8431Z" fill="black"/>
</g>
<defs>
<clipPath id="clip0">
<rect width="72" height="72" fill="white"/>
</clipPath>
</defs>
</svg>
