<svg width="72" height="72" viewBox="0 0 72 72" fill="none" xmlns="http://www.w3.org/2000/svg">
<g clip-path="url(#clip0)">
<rect width="72" height="72" fill="#00C6AE"/>
<path fill-rule="evenodd" clip-rule="evenodd" d="M4.87154 111.338C10.3505 111.492 15.5261 111.661 20.9944 111.338C29.745 110.797 55.4251 111.773 61.0698 111.338C61.4958 111.305 62.9608 111.773 62.9913 111.338C63.2394 108.312 63.4003 77.6952 62.6631 75.5885C61.9259 73.4819 58.287 63.3549 53.6503 58.6327C52.3574 57.357 50.39 56.8629 49.3032 55.3886C48.3662 53.781 48.439 52.8374 47.5135 51.9916C47.112 51.6246 46.1649 51.4758 45.4612 50.9663C44.7536 50.2628 45.4235 48.7143 45.1331 47.7346C44.5345 45.2886 42.3291 43.7193 39.9187 43.3496C36.5684 42.5476 33.0315 43.3058 31.4268 45.9385C30.8295 46.9184 31.1473 48.1096 30.4127 49.6798C30.4651 50.8665 29.0803 51.1532 28.2525 51.6234L26.6086 53.2854C21.5442 56.1361 15.5864 57.6754 11.149 61.5053C7.3762 65.3341 3.62367 69.7594 1.94972 74.9395C1.60317 76.3511 1.49007 77.8099 1.34645 79.2523C0.936466 83.4672 -0.205185 87.5583 -1.18765 91.664C-2.30792 96.8368 -3.35219 102.328 -1.84233 107.55C-1.40702 108.655 3.88057 111.286 4.87154 111.338Z" fill="white"/>
<path fill-rule="evenodd" clip-rule="evenodd" d="M31.1363 46.3599C31.1802 46.2166 31.3691 46.2569 31.3834 46.393C31.5257 47.7429 31.3467 49.1536 31.1749 50.4945C31.0926 51.1417 31.0451 51.8148 30.9198 52.453C30.9037 52.5211 30.8885 52.5899 30.8742 52.658C30.9153 52.7313 31.0371 52.8137 31.0952 52.8701L31.3478 53.1158L31.8539 53.606C32.8446 54.5656 33.835 55.5259 34.8255 56.4856L36.2795 57.8954C36.778 58.3787 37.3444 58.8416 37.7819 59.3805C38.0191 59.6731 38.0727 60.032 37.8391 60.3453C37.7237 60.5002 37.5162 60.613 37.3058 60.6362C37.3882 60.7508 37.4517 60.8806 37.492 61.0248C37.5743 61.3184 37.2773 61.6791 36.9614 61.5564C36.6026 61.4186 36.3064 61.1715 35.9413 61.0534C35.5727 60.9334 35.1719 60.9102 34.7897 60.9746C34.6143 61.0041 34.4425 61.0481 34.2752 61.1036C36.0658 61.928 38.0029 62.4015 39.9786 62.4695C40.3812 62.483 40.7831 62.4775 41.1829 62.4508C41.8559 62.4068 42.5242 62.3049 43.181 62.1402C43.6973 62.0104 44.2083 61.8474 44.704 61.6504C44.9474 61.5538 45.188 61.4473 45.4207 61.3265L45.4411 61.3144C45.4937 61.2815 46.4658 60.73 46.4828 60.6471C46.4998 60.5642 46.4998 60.5353 46.4681 60.4632C46.4365 60.391 46.3487 60.3413 46.3487 60.3413C46.0484 60.2128 45.7372 60.0933 45.4091 60.0911C44.6538 60.0866 43.8297 60.6453 43.2052 61.0257C42.5189 61.4437 41.888 61.9324 41.2277 62.3854C41.2125 62.3961 41.1955 62.4006 41.1793 62.4006C41.1096 62.4006 41.0451 62.3146 41.0899 62.2475C41.5632 61.5504 42.202 60.9699 42.8702 60.4632L43.1394 60.2612C43.7514 59.8047 44.4672 59.299 45.2113 59.1888C46.123 59.0545 47.0751 59.623 47.8885 59.9559L49.329 60.5458C49.5858 60.6506 49.8651 60.7401 50.1236 60.8591L49.5199 58.9696C49.2183 58.0247 48.9174 57.0796 48.6195 56.1338L48.5617 55.9485C48.265 54.9885 47.9925 53.9898 47.4983 53.1128C47.3802 52.9024 47.2451 52.7046 47.1117 52.5049C46.973 52.2982 46.9212 52.0699 46.7468 51.8854C46.4014 51.5193 45.9065 51.3045 45.434 51.1641C45.3186 51.13 45.3527 50.9779 45.461 50.9662C45.9458 50.9151 46.4081 51.0282 46.8462 51.2328L47.0283 51.3197C47.4426 51.5158 47.8465 51.6982 48.1542 52.0502C48.8556 52.854 49.2199 53.8661 49.5545 54.8649L49.6441 55.1331C49.7692 55.0919 50.6202 55.3515 50.7267 55.4132C53.9166 56.7622 56.3737 59.2739 58.1704 62.217C60.1389 65.4422 61.2108 69.1275 62.0957 72.7743C62.3688 73.8998 62.63 75.0287 62.8809 76.1601C61.7631 76.5904 60.575 76.8156 59.5285 77.4217C59.1299 77.6526 59.49 78.2717 59.8897 78.0401C60.8699 77.4724 61.9863 77.2627 63.0354 76.864C63.6042 79.4834 64.1102 82.1171 64.534 84.7619C65.836 92.8789 66.6582 101.128 66.6063 109.356C66.6054 109.538 66.5518 109.741 66.4524 109.916C66.5107 109.887 66.5563 109.853 66.5823 109.812C66.9123 109.294 67.74 109.775 67.4081 110.295L67.3596 110.371C67.1105 110.755 66.8779 111.049 66.44 111.266C65.9988 111.484 65.521 111.521 65.0343 111.533C63.3798 111.577 61.7242 111.605 60.0681 111.626C59.841 109.854 59.7486 108.065 59.4357 106.303C59.3553 105.85 58.6653 106.042 58.7455 106.493C59.0477 108.194 59.1444 109.922 59.3553 111.634C55.8146 111.673 52.272 111.673 48.7341 111.683C43.9394 111.697 39.1453 111.687 34.3509 111.684L32.2961 111.684C26.7574 111.684 21.2186 111.666 15.68 111.629L14.3628 111.62C13.8388 108.53 13.4821 105.413 13.4755 102.273C13.4745 101.812 12.7587 101.812 12.7597 102.273C12.7663 105.41 13.119 108.527 13.6382 111.616C12.3268 111.61 11.016 111.615 9.70455 111.661L9.03704 111.685C7.7015 111.731 6.36326 111.759 5.03022 111.653C3.55025 111.533 2.05337 111.261 0.726411 110.564C0.128787 110.249 -0.397434 109.847 -0.84715 109.374C-0.390007 109.108 0.0736685 108.853 0.516495 108.563C0.900446 108.312 0.542265 107.692 0.155183 107.945C-0.322003 108.257 -0.823617 108.529 -1.31494 108.818C-1.67071 108.343 -1.96267 107.816 -2.1844 107.248C-2.53426 106.35 -2.66937 105.384 -2.78659 104.433C-2.92519 103.313 -2.98254 102.185 -2.98254 101.057C-2.98254 98.6848 -2.7329 96.3198 -2.38474 93.9764C-2.0518 91.7313 -1.61171 89.5043 -1.14651 87.2844L-1.08292 86.9817C-0.623903 84.7994 -0.186355 82.6108 0.339776 80.4437C0.826268 78.4398 1.38846 76.4452 2.05847 74.4893C2.65484 74.8582 3.27895 75.1809 3.86602 75.5651C4.25265 75.8183 4.61173 75.1985 4.22733 74.9469C3.60098 74.5368 2.93294 74.196 2.30087 73.7954C3.05007 71.701 3.92946 69.6554 4.98378 67.6962C7.09537 63.7729 9.94086 60.263 13.5853 57.6726C15.4097 56.3763 17.4113 55.3157 19.5132 54.544C21.6562 53.7564 23.877 53.3248 26.1479 53.1477C26.2128 53.1425 26.2492 53.2026 26.2465 53.2581L26.2456 53.2684L26.335 53.2828C26.3681 53.0582 26.4361 52.8406 26.5659 52.641C26.8612 52.1863 27.4212 51.8945 27.8686 51.6152L27.9747 51.5492C28.507 51.2191 29.0687 50.894 29.6878 50.7783C29.7092 50.7746 29.7226 50.797 29.7083 50.8141C29.3 51.2823 28.778 51.6401 28.2995 52.0362L28.1895 52.1279C27.793 52.4543 27.24 52.8248 27.2252 53.3705C27.2083 54.0133 27.3398 54.6818 27.3873 55.3228C27.4347 55.9619 27.4677 56.6001 27.4847 57.241C27.5466 59.5371 27.4723 61.834 27.2691 64.1211L28.1674 63.5194C29.5654 62.5832 30.968 61.6497 32.3998 60.7732C33.266 60.2425 34.2395 59.7886 35.2774 59.8092C35.5682 59.8145 35.8966 59.8567 36.2116 59.9462C35.8725 59.6248 35.5477 59.2829 35.2157 58.9598C34.6689 58.4271 34.1222 57.8945 33.5756 57.3628L31.9992 55.8268L30.4223 54.2907C29.9338 53.8136 29.3611 53.3741 29.413 52.6222C29.4551 52.0225 29.7602 51.4254 29.9686 50.8472C29.9982 50.7639 30.025 50.6816 30.0501 50.6001C30.4707 49.2019 30.7095 47.7526 31.1363 46.3599ZM51.5095 106.351C51.1834 106.025 50.6771 106.531 51.0034 106.857L51.1759 107.029C51.464 107.317 51.7496 107.613 51.949 107.969L51.9782 108.022C52.1931 108.43 52.8112 108.069 52.5963 107.661C52.3306 107.157 51.908 106.75 51.5095 106.351ZM37.539 106.259C36.501 106.061 35.5005 106.061 34.4625 106.259C34.0105 106.345 34.2019 107.036 34.6528 106.95C35.5607 106.776 36.4408 106.776 37.3487 106.95C37.7989 107.035 37.9917 106.345 37.539 106.259ZM23.5204 99.0406C23.0738 98.9274 22.8832 99.6179 23.3302 99.7311L23.5503 99.7864C24.2984 99.9713 25.011 100.109 25.7882 99.9375C26.2319 99.8393 26.0524 99.1656 25.6155 99.2433L25.5978 99.2469C24.8787 99.4057 24.2162 99.217 23.5204 99.0406ZM48.4174 94.3892C48.0869 94.0678 47.5802 94.5736 47.9112 94.8955C48.3244 95.2974 48.8112 95.6028 49.4012 95.6191C49.8552 95.6318 49.8616 94.937 49.4215 94.904L49.4012 94.903C49.0058 94.892 48.6908 94.6551 48.4174 94.3892ZM6.28896 92.4766C6.70109 92.2705 6.33897 91.6527 5.92773 91.8584L3.45384 93.0957C3.04171 93.3019 3.40383 93.9199 3.81507 93.7141L6.28896 92.4766ZM55.1736 92.6345C54.7127 92.6216 54.7131 93.3377 55.1736 93.3506C55.6065 93.3627 56.0503 93.5268 56.436 93.7142C56.8487 93.9147 57.212 93.2974 56.7973 93.0958C56.293 92.8509 55.7394 92.6503 55.1736 92.6345ZM32.0585 89.1769C32.4374 88.9194 32.0796 88.2985 31.6972 88.5585C31.1754 88.9132 30.7026 89.3323 30.1891 89.6977L30.0479 89.796C29.6691 90.0535 30.0268 90.6742 30.4092 90.4143C30.9784 90.0274 31.4893 89.5637 32.0585 89.1769ZM58.678 83.9723C58.2174 83.9722 58.2167 84.6883 58.678 84.6885L58.7654 84.6882C59.1456 84.6861 59.5463 84.6755 59.8999 84.8276L59.9405 84.8458C60.3549 85.0411 60.7187 84.4239 60.3018 84.2276C59.7834 83.9834 59.2415 83.9726 58.678 83.9723ZM18.9251 83.4609L18.9852 83.4384C19.4156 83.2838 19.2301 82.5915 18.7949 82.748C18.1392 82.9836 17.6291 83.4288 17.0603 83.8151C16.6813 84.0727 17.039 84.6934 17.4215 84.4336C17.9116 84.1006 18.3676 83.679 18.9251 83.4609ZM45.7745 81.5979L45.871 81.5462C46.2808 81.3352 45.919 80.7171 45.5097 80.9278C45.1848 81.0951 44.8941 81.3176 44.5754 81.4948L44.4788 81.5466C44.0691 81.7574 44.4308 82.3755 44.8402 82.1649C45.1651 81.9976 45.4558 81.7751 45.7745 81.5979ZM34.885 74.6616L34.8113 74.5904C34.4818 74.2677 33.9753 74.7737 34.3051 75.0967C35.1289 75.9032 36.1027 76.5156 37.0851 77.1076L37.2638 77.2151C37.6597 77.4527 38.0201 76.8338 37.6251 76.5967L37.3629 76.439C36.4894 75.912 35.6262 75.3681 34.885 74.6616ZM15.0759 73.9932C15.3535 73.6326 14.7498 73.2797 14.4677 73.6193L14.4578 73.6317C14.1688 74.007 13.826 74.3467 13.4677 74.6567L13.4003 74.7145C13.187 74.896 12.7988 75.2849 12.4991 75.3105C12.0435 75.3493 12.0394 76.0658 12.4991 76.0266C12.9628 75.9872 13.3618 75.6607 13.7121 75.381C14.2219 74.974 14.678 74.5098 15.0759 73.9932ZM53.1588 71.3844C53.4914 71.0719 53.0001 70.5744 52.6645 70.8675L52.6527 70.8782C52.0311 71.4623 51.137 71.619 50.3368 71.8171C49.8898 71.928 50.0792 72.6186 50.5271 72.5077L50.8916 72.4177C51.7094 72.2135 52.5299 71.9758 53.1588 71.3844ZM38.9821 66.8674C38.5355 66.7538 38.3449 67.4443 38.7919 67.5579C39.5511 67.7509 40.2703 68.0004 40.974 68.3468C41.386 68.5495 41.7491 67.9322 41.3353 67.7285C40.5782 67.3557 39.7996 67.0753 38.9821 66.8674ZM46.2947 51.7719C46.284 51.7397 46.3181 51.703 46.3511 51.7145C47.1544 52.0141 46.7274 53.0667 46.4778 53.6967L46.4325 53.8119C46.0415 54.8216 45.4949 55.8044 44.8989 56.7085C44.2753 57.6547 43.5827 58.5606 42.8329 59.4109C42.5076 59.7801 42.1702 60.1387 41.8215 60.4866L41.6902 60.6166C41.3377 60.9631 40.8832 61.5718 40.3364 61.5046C39.7476 61.4338 39.4192 60.8046 39.8487 60.3266C40.1521 59.9883 40.5727 59.7188 40.9117 59.4109C41.2482 59.1065 41.5739 58.7924 41.8915 58.4692C42.5412 57.806 43.1568 57.1051 43.7196 56.3666C44.2639 55.6524 44.7848 54.9185 45.2585 54.1555L45.3526 54.0025C45.7131 53.4091 46.5453 52.5363 46.2947 51.7719ZM17.8336 59.2728C17.4523 59.012 17.0938 59.6323 17.4723 59.8911C18.1683 60.3669 18.7806 60.9434 19.5339 61.3347C19.9372 61.5444 20.2959 60.9437 19.9095 60.7242L19.8952 60.7165C19.1424 60.3252 18.5292 59.7483 17.8336 59.2728Z" fill="black"/>
<path fill-rule="evenodd" clip-rule="evenodd" d="M58.0363 51.637C57.0153 46.8427 56.3604 41.9866 55.7743 37.1243C55.4907 34.7692 55.2643 32.4079 55.002 30.051C54.757 27.8552 54.4714 25.6523 53.8988 23.5147C53.3665 21.5284 52.5879 19.5618 51.4408 17.8468C50.3654 16.2391 49.0133 14.8615 47.4609 13.7112C44.3935 11.4385 40.4708 10.2292 36.6556 10.6302C36.0792 10.6911 35.5084 10.7886 34.9438 10.9193C35.1236 10.8665 35.3053 10.8172 35.4887 10.7743C35.5477 10.7601 35.5215 10.6805 35.4636 10.6858C19.9415 12.0966 16.2903 39.1016 15.9583 44.5467C15.9324 44.9702 15.9119 45.3926 15.8967 45.816C15.7802 46.7605 15.6935 47.7075 15.6523 48.6571C15.6059 49.7528 15.6282 50.8557 15.7292 51.9476C15.833 53.0674 15.9511 54.215 16.4183 55.2444C16.7046 55.8782 30.0547 55.01 30.1925 54.2616C30.4716 52.7506 30.6148 51.1913 30.5272 49.6544C30.486 48.9176 30.4099 48.1863 30.2524 47.4648C30.2095 47.2679 30.1638 46.8982 30.0485 46.6055C31.2662 44.2908 32.6057 42.0421 33.9846 39.8195C36.8542 35.1917 39.9053 30.6498 42.2505 25.7211C43.4264 23.2515 44.585 20.6289 45.1398 17.9228L45.2293 17.9407C45.2185 17.973 45.2257 18.0132 45.2579 18.0356C47.8071 19.7981 49.5109 22.4692 50.615 25.3292C51.9007 28.659 52.5244 32.2548 52.4349 35.8228C52.2927 41.4925 50.1444 48.4996 44.066 50.2917C42.6791 50.7007 41.1814 50.8162 39.7604 50.5172C39.0902 50.3758 38.4334 50.1582 37.8285 49.836C37.1574 49.4789 36.6063 48.9731 35.9773 48.557C35.4019 48.1765 34.7227 48.9185 35.0538 49.4816C35.7848 50.7258 37.3579 51.4867 38.709 51.8608C40.1505 52.2609 41.6708 52.2798 43.1391 52.0256C43.2509 52.0067 43.3619 51.9852 43.4719 51.962C43.497 52.3308 43.6553 52.6979 43.913 52.9959C44.0285 53.1302 44.1707 53.2464 44.33 53.344C44.3507 53.704 44.5824 54.0655 44.9591 54.1444C46.9714 54.5632 55.3286 53.4649 57.3383 52.866C57.8779 52.705 58.1508 52.176 58.0363 51.637Z" fill="black"/>
<path fill-rule="evenodd" clip-rule="evenodd" d="M52.787 34.3481C52.6364 27.314 50.8845 19.5269 44.8791 15.1802C44.4966 14.903 43.9225 15.0372 43.6055 15.3538C43.3452 15.4047 43.1061 15.5624 42.9471 15.8524C39.396 22.3363 35.6577 28.7177 31.7339 34.9829C29.2146 39.0339 26.1543 43.09 25.7505 48.0002C25.6807 48.0931 25.032 48.8256 25.41 48.7723C25.5778 48.6845 25.7486 48.6123 25.9282 48.559C26.408 49.2587 27.5221 49.1487 27.787 48.3589C28.7052 48.3853 29.6139 48.62 30.4888 48.8923C32.6345 49.5642 34.8154 50.2284 37.0053 50.7419C44.2195 52.6573 51.9714 50.2203 52.5478 41.8063C53.3221 40.7149 52.9032 35.8504 52.787 34.3481Z" fill="white"/>
<path fill-rule="evenodd" clip-rule="evenodd" d="M44.6959 46.8151L44.8868 46.7644C45.5704 46.5781 46.2797 46.2823 46.9325 46.6876C47.1682 46.834 47.2037 47.1452 47.0174 47.3466C46.4886 47.9181 45.7082 47.8072 44.9932 47.813L44.958 47.8134C44.2386 47.8233 43.5246 47.7874 42.8126 47.6842C42.7188 47.6706 42.7002 47.5146 42.7855 47.4771C43.4054 47.2053 44.043 46.9909 44.6959 46.8151ZM45.8556 36.367C46.5313 36.7778 47.5608 37.7359 46.834 38.7545C45.9784 39.6526 44.7465 38.6229 44.1394 38.1571C43.5765 37.7962 42.9441 38.7245 43.4664 39.146C47.8529 42.3949 49.6331 36.4744 46.1974 35.8839C45.8191 35.8188 45.6786 36.2399 45.8556 36.367ZM50.5535 30.9638C51.6435 30.9304 51.6445 32.6628 50.5535 32.6581C50.2278 32.6567 49.9021 32.6566 49.5764 32.6559C49.7656 33.3461 49.6576 34.1692 49.3157 34.749C49.0903 35.1316 48.5506 35.2012 48.2354 34.8883C47.6912 34.348 47.5839 33.5578 47.7762 32.8414L47.7366 32.7476C47.7238 32.7169 47.7145 32.6859 47.707 32.6546C46.6543 32.6555 45.6015 32.6581 44.5488 32.6598L42.9697 32.6614C41.9445 32.6618 40.9188 32.6701 39.8934 32.6605C39.9061 32.6796 39.9187 32.6986 39.929 32.7203C39.9929 32.8551 40.0201 33.0251 40.0402 33.1708C40.0746 33.4207 40.0704 33.6899 40.0311 33.9388C40.0023 34.1207 39.9495 34.3373 39.8483 34.5087L39.8477 34.5123C39.8 34.7157 39.7398 34.9104 39.5826 35.0571C39.5354 35.101 39.4893 35.1324 39.4406 35.1546C39.3487 35.2508 39.2304 35.3144 39.075 35.3164C38.9925 35.3174 38.902 35.2933 38.8143 35.2591C38.6795 35.2704 38.5403 35.2093 38.421 35.1553C38.3253 35.1119 38.2376 35.0542 38.1668 34.979C38.1336 34.9711 38.1001 34.9582 38.0667 34.9375C37.8616 34.8113 37.7832 34.5583 37.7725 34.3299C37.7718 34.316 37.7724 34.3014 37.7719 34.2874C37.7643 34.2564 37.7575 34.2252 37.7523 34.1939C37.6841 33.788 37.767 33.3308 37.8538 32.9363C37.8756 32.8376 37.8936 32.7229 37.9204 32.612C37.7157 32.6041 37.5113 32.5962 37.3066 32.5878C36.7941 32.5668 36.1686 32.6355 35.6944 32.4188C35.6599 32.4031 35.6692 32.3571 35.6944 32.3391C36.1322 32.0261 36.8123 31.9754 37.3395 31.8723L37.3843 31.8633C38.013 31.7344 38.6413 31.6259 39.2763 31.5332C40.4987 31.3549 41.7367 31.2589 42.9697 31.1898C45.4941 31.0484 48.0265 31.0411 50.5535 30.9638Z" fill="black"/>
<path fill-rule="evenodd" clip-rule="evenodd" d="M50.7768 29.7101C52.877 29.7101 54.0755 30.162 54.5147 30.1972L54.5279 30.1981C54.7106 30.2098 54.8745 30.2251 55.0464 30.2916C55.6786 30.5352 55.7816 31.1985 55.4127 31.6165C55.3868 32.4816 55.5005 33.4923 55.3054 34.3601C55.0647 38.0186 53.3448 38.636 52.3672 38.8613C51.8764 38.9745 51.2947 39.0195 50.7734 38.9001C49.884 38.8669 49.0047 38.5884 48.2524 38.1034C47.2047 37.4274 46.4265 36.3883 46.174 35.1552C46.0543 34.5674 45.9984 33.9556 46.0635 33.3582L46.0732 33.2759C45.7326 33.1129 45.338 33.0821 44.9312 33.0677C44.7368 33.0608 44.5453 33.0546 44.3592 33.0628C44.1773 33.0832 43.9976 33.1102 43.8174 33.1471C43.6205 33.2065 43.4346 33.3045 43.263 33.4599L43.2511 33.6865C43.2189 34.2528 43.1446 34.8208 43.03 35.3763C42.8607 36.1961 42.5885 36.9789 42.0091 37.5604C41.813 37.8534 41.5703 38.115 41.2757 38.3415C40.2055 39.1658 38.7515 39.4684 37.4171 39.3544C34.708 39.1232 33.142 36.9717 32.7812 36.0522L32.7596 35.9964C32.4989 35.3128 32.2912 34.4258 31.4674 34.2789L31.2922 34.2474C30.9163 34.1768 30.5694 34.0785 30.349 33.7116C30.2524 33.5514 30.2027 33.3723 30.1905 33.1897C30.0619 33.1996 29.9335 33.209 29.8056 33.2182C28.7848 33.4341 22.662 33.6172 22.1733 33.6172C22.1733 33.6172 21.2338 34.0128 20.8372 33.7063C20.5623 33.4932 20.4719 33.2092 20.6232 32.8874C20.8515 32.4033 21.905 32.112 22.3728 32.0198C22.3728 32.0198 29.9216 32.0825 30.4649 31.9795C30.8011 31.6327 31.4024 31.6802 31.9048 31.6254C32.3208 31.3287 32.9027 31.1299 33.3623 30.9969C33.456 30.9614 33.5488 30.9271 33.6389 30.8947C34.4816 30.5945 35.3575 30.4355 36.2467 30.3501C37.1637 30.2629 38.0833 30.3024 38.9949 30.4273C39.3791 30.4794 39.7597 30.5469 40.1375 30.635C40.8142 30.7243 41.4869 30.8713 42.1638 31.0456L42.2992 31.0809C43.012 31.2678 43.7445 31.4295 44.4824 31.3028C45.0831 31.2003 45.6608 30.969 46.2147 30.7189L46.2868 30.6862C47.5047 30.1299 49.4066 29.7101 50.7768 29.7101ZM40.0641 31.7441C39.6148 31.6452 39.4229 32.3383 39.8737 32.4374C40.1929 32.5076 40.4634 32.6687 40.6462 32.9415L40.6655 32.9711C40.9107 33.3616 41.5309 33.0012 41.284 32.6082C41.0061 32.166 40.5743 31.8562 40.0641 31.7441ZM53.2254 31.3143C53.067 31.2027 52.8273 31.2856 52.7353 31.4433C52.6341 31.617 52.7004 31.8104 52.8488 31.9241L52.8639 31.9352C53 32.0311 53.1325 32.2031 53.1492 32.3793L53.1506 32.4014C53.1685 32.8626 53.8849 32.8649 53.867 32.4014C53.8496 31.9479 53.5871 31.5691 53.2254 31.3143Z" fill="black"/>
</g>
<defs>
<clipPath id="clip0">
<rect width="72" height="72" fill="white"/>
</clipPath>
</defs>
</svg>
