<svg id="Слой_1" data-name="Слой 1" xmlns="http://www.w3.org/2000/svg" width="209.1" height="81.31" viewBox="0 0 209.1 81.31">
  <title>Монтажная область 1</title>
  <path d="M207.16,59.23l1.94-2.95H190.53V44.17h-172V56.28H0l1.94,2.95H0L6.3,68.8,0,78.36H1.94L0,81.31H34.72V71.62H174.38v9.69H209.1l-1.94-3h1.94l-6.3-9.56,6.3-9.57ZM187.3,65.16H21.8V47.4H187.3Z" style="fill: #18191f"/>
  <polygon points="18.57 59.51 5.99 59.51 6.86 60.84 7.92 62.45 11.13 67.32 10.16 68.79 9.19 70.26 8.61 71.15 5.99 75.13 27 75.13 18.57 68.39 18.57 59.51" style="fill: #f95a2c"/>
  <polygon points="190.53 65.97 180.88 75.14 203.11 75.14 200.49 71.16 199.9 70.25 198.94 68.8 197.97 67.31 201.17 62.45 202.24 60.84 203.11 59.51 190.53 59.51 190.53 65.97" style="fill: #f95a2c"/>
  <polygon points="175.04 47.4 169.98 47.4 140.97 47.4 136.67 47.4 21.8 47.4 21.8 65.16 187.3 65.16 187.3 47.4 175.04 47.4" style="fill: #f95a2c"/>
  <g>
    <g>
      <path d="M169.68,39.41l-2.34-2.11-.05,0a14.56,14.56,0,0,1-1.18,1.29l-.06.07a14.32,14.32,0,0,1-10.47,4.46,14.72,14.72,0,0,1-7.25-1.77,12.68,12.68,0,0,1-4.91-5h0a15.81,15.81,0,0,1-1.7-7.46,15.4,15.4,0,0,1,1.7-7.38,12.57,12.57,0,0,1,4.91-5.05,14.72,14.72,0,0,1,7.25-1.78,14.29,14.29,0,0,1,10.47,4.47l.06.07a14.56,14.56,0,0,1,1.18,1.29l.05-.05,2.34-2.11,6.53-5.91,0,0a22.36,22.36,0,0,0-2-2.22l-.08-.09-.1-.07a23.69,23.69,0,0,0-6.89-4.58h0A30.15,30.15,0,0,0,154.86,3a29.53,29.53,0,0,0-14.07,3.34,24.39,24.39,0,0,0-9.72,9.17,25.34,25.34,0,0,0-3.56,13.35,25.36,25.36,0,0,0,3.56,13.36,24.91,24.91,0,0,0,9.72,9.24,32.27,32.27,0,0,0,26.37.85,23.69,23.69,0,0,0,6.89-4.58l.1-.07.08-.09a22.36,22.36,0,0,0,2-2.22l-.08-.08Z" style="fill: #ffbd12"/>
      <path d="M154.86,3a30.15,30.15,0,0,1,12.29,2.42h0A23.69,23.69,0,0,1,174.05,10l.1.07.08.09a22.36,22.36,0,0,1,2,2.22l0,0-6.53,5.91-2.34,2.11-.05.05a14.56,14.56,0,0,0-1.18-1.29l-.06-.07a14.29,14.29,0,0,0-10.47-4.47,14.72,14.72,0,0,0-7.25,1.78,12.57,12.57,0,0,0-4.91,5.05,15.4,15.4,0,0,0-1.7,7.38,15.81,15.81,0,0,0,1.7,7.46h0a12.68,12.68,0,0,0,4.91,5,14.72,14.72,0,0,0,7.25,1.77,14.32,14.32,0,0,0,10.47-4.46l.06-.07a14.56,14.56,0,0,0,1.18-1.29l.05,0,2.34,2.11,6.48,5.86.08.08a22.36,22.36,0,0,1-2,2.22l-.08.09-.1.07a23.69,23.69,0,0,1-6.89,4.58,32.27,32.27,0,0,1-26.37-.85,24.91,24.91,0,0,1-9.72-9.24,25.36,25.36,0,0,1-3.57-13.36,25.35,25.35,0,0,1,3.57-13.35,24.39,24.39,0,0,1,9.72-9.17A29.53,29.53,0,0,1,154.86,3m0-3a32.55,32.55,0,0,0-15.47,3.69A27.53,27.53,0,0,0,128.49,14a28.41,28.41,0,0,0-4,14.89,28.42,28.42,0,0,0,4,14.91A28.07,28.07,0,0,0,139.37,54.1a35.21,35.21,0,0,0,29,.95A26.77,26.77,0,0,0,176,50a2.6,2.6,0,0,0,.27-.24l.09-.09a26.84,26.84,0,0,0,2.23-2.47l1.67-2.1-1.89-1.89-.08-.08-.06,0,0-.06-6.48-5.86-2.29-2.06-2.33-2.32L165,35.34a12.64,12.64,0,0,1-1,1l-.1.1-.06.08a11.39,11.39,0,0,1-8.28,3.5,11.74,11.74,0,0,1-5.8-1.39A9.77,9.77,0,0,1,146.12,35l0-.09a12.83,12.83,0,0,1-1.36-6.06,12.48,12.48,0,0,1,1.35-6A9.55,9.55,0,0,1,149.81,19a11.84,11.84,0,0,1,5.77-1.38,11.29,11.29,0,0,1,8.27,3.51l.07.08.1.1a12.64,12.64,0,0,1,1,1.05l2.1,2.54,2.33-2.32,2.28-2.06,6.43-5.82L180.48,13l-1.89-2.45A27.1,27.1,0,0,0,176.33,8L176.27,8l-.21-.21L176,7.68a27.1,27.1,0,0,0-7.6-5l-.58-.26h0A33.46,33.46,0,0,0,154.86,0Z" style="fill: #18191f"/>
    </g>
    <g>
      <polygon points="84.89 4 81.67 4 81.67 7.23 81.67 50.5 81.67 53.73 84.89 53.73 92.5 53.73 95.73 53.73 95.73 50.5 95.73 36.68 114.47 36.68 117.69 36.68 117.69 33.45 117.69 29.04 117.69 25.81 114.47 25.81 95.73 25.81 95.73 14.87 117.44 14.87 120.67 14.87 120.67 11.64 120.67 7.23 120.67 4 117.44 4 84.89 4" style="fill: #ffbd12"/>
      <path d="M120.67,4V14.87H95.73V25.81h22V36.68h-22v17H81.66V4h39m3-3h-45V56.73H98.73v-17h22V22.81h-22V17.87h24.94V1Z" style="fill: #18191f"/>
    </g>
    <g>
      <polygon points="36.09 4 32.85 4 32.85 7.23 32.85 50.5 32.85 53.73 36.09 53.73 43.7 53.73 46.92 53.73 46.92 50.5 46.92 36.68 65.64 36.68 68.88 36.68 68.88 33.45 68.88 29.04 68.88 25.81 65.64 25.81 46.92 25.81 46.92 14.87 68.64 14.87 71.86 14.87 71.86 11.64 71.86 7.23 71.86 4 68.64 4 36.09 4" style="fill: #ffbd12"/>
      <path d="M71.86,4V14.87H46.92V25.81h22V36.68h-22v17H32.85V4h39m3-3h-45V56.73H49.92v-17h22V22.81h-22V17.87H74.86V1Z" style="fill: #18191f"/>
    </g>
  </g>
</svg>
